<svg width="20" height="21" viewBox="0 0 20 21" fill="none" xmlns="http://www.w3.org/2000/svg">
<path fill-rule="evenodd" clip-rule="evenodd" d="M8.4527 1.35651C9.0563 1.92408 8.91079 2.78313 8.63465 3.41723L8.63414 3.4184C8.22174 4.36102 7.99504 5.39431 8.00344 6.48732L8.00346 6.48998C8.02025 10.5459 11.3928 14.0084 15.5236 14.1774L15.5241 14.1774C16.1342 14.2028 16.7172 14.1605 17.2832 14.0592C17.6623 13.9902 18.0348 13.9778 18.3709 14.0562C18.7137 14.1361 19.059 14.3233 19.2735 14.6744C19.4872 15.0239 19.4971 15.4148 19.4166 15.7535C19.3373 16.087 19.1632 16.4135 18.9363 16.7209C16.9612 19.4231 13.6733 21.1339 10.0044 20.9748L10.004 20.9748C4.79688 20.7458 0.439009 16.5811 0.078396 11.4289C-0.251006 6.86208 2.45954 2.88545 6.39794 1.22456C7.03075 0.956541 7.87247 0.810927 8.4527 1.35651ZM7.36476 2.49126C7.27731 2.50302 7.15033 2.5348 6.98214 2.60611L6.98081 2.60668C3.59549 4.03433 1.29403 7.43675 1.57456 11.3217L1.57469 11.3234C1.88031 15.6955 5.60424 19.2796 10.0694 19.4762C13.2244 19.613 16.0393 18.1433 17.7263 15.8344L17.7286 15.8312C17.8303 15.6936 17.8903 15.5838 17.9242 15.5035C17.8388 15.4992 17.7163 15.5049 17.551 15.5351L17.5486 15.5355C16.876 15.656 16.1833 15.7061 15.4623 15.6761C10.5495 15.4752 6.5244 11.374 6.50348 6.49753C6.49359 5.1869 6.76614 3.94596 7.25968 2.81768C7.32168 2.67519 7.35157 2.56714 7.36476 2.49126ZM7.48734 2.48881C7.48733 2.48883 7.48685 2.48872 7.48596 2.48846L7.48734 2.48881Z" fill="white"/>
</svg>
