<svg width="20" height="21" viewBox="0 0 20 21" fill="none" xmlns="http://www.w3.org/2000/svg">
<path fill-rule="evenodd" clip-rule="evenodd" d="M8.45264 1.35651C9.05624 1.92408 8.91073 2.78313 8.63459 3.41723L8.63408 3.4184C8.22168 4.36102 7.99497 5.39431 8.00338 6.48732L8.0034 6.48998C8.02019 10.5459 11.3927 14.0084 15.5235 14.1774L15.5241 14.1774C16.1341 14.2028 16.7171 14.1605 17.2832 14.0592C17.6623 13.9902 18.0348 13.9778 18.3708 14.0562C18.7136 14.1361 19.0589 14.3233 19.2735 14.6744C19.4871 15.0239 19.497 15.4148 19.4165 15.7535C19.3373 16.087 19.1631 16.4135 18.9362 16.7209C16.9611 19.4231 13.6732 21.1339 10.0044 20.9748L10.0039 20.9748C4.79682 20.7458 0.438948 16.5811 0.0783349 11.4289C-0.251067 6.86208 2.45948 2.88545 6.39788 1.22456C7.03069 0.956541 7.87241 0.810927 8.45264 1.35651ZM7.3647 2.49126C7.27725 2.50302 7.15027 2.5348 6.98208 2.60611L6.98075 2.60668C3.59543 4.03433 1.29397 7.43675 1.5745 11.3217L1.57462 11.3234C1.88025 15.6955 5.60418 19.2796 10.0694 19.4762C13.2244 19.613 16.0393 18.1433 17.7262 15.8344L17.7286 15.8312C17.8302 15.6936 17.8902 15.5838 17.9241 15.5035C17.8388 15.4992 17.7163 15.5049 17.551 15.5351L17.5485 15.5355C16.8759 15.656 16.1833 15.7061 15.4622 15.6761C10.5495 15.4752 6.52434 11.374 6.50342 6.49753C6.49353 5.1869 6.76608 3.94596 7.25962 2.81768C7.32162 2.67519 7.35151 2.56714 7.3647 2.49126ZM7.48728 2.48881C7.48727 2.48883 7.48679 2.48872 7.4859 2.48846L7.48728 2.48881Z" fill="#D8D8D8"/>
</svg>
