<svg width="40" height="40" viewBox="0 0 40 40" fill="none" xmlns="http://www.w3.org/2000/svg">
<rect x="0.5" y="0.5" width="39" height="39" rx="5.5" stroke="#2F3132"/>
<path fill-rule="evenodd" clip-rule="evenodd" d="M18.4526 10.3565C19.0562 10.9241 18.9107 11.7831 18.6346 12.4172L18.6341 12.4184C18.2217 13.361 17.995 14.3943 18.0034 15.4873L18.0034 15.49C18.0202 19.5459 21.3927 23.0084 25.5235 23.1774L25.5241 23.1774C26.1341 23.2028 26.7171 23.1605 27.2832 23.0592C27.6623 22.9902 28.0348 22.9778 28.3708 23.0562C28.7136 23.1361 29.0589 23.3233 29.2735 23.6744C29.4871 24.0239 29.497 24.4148 29.4165 24.7535C29.3373 25.087 29.1631 25.4135 28.9362 25.7209C26.9611 28.4231 23.6732 30.1339 20.0044 29.9748L20.0039 29.9748C14.7968 29.7458 10.4389 25.5811 10.0783 20.4289C9.74893 15.8621 12.4595 11.8854 16.3979 10.2246C17.0307 9.95654 17.8724 9.81093 18.4526 10.3565ZM17.3647 11.4913C17.2773 11.503 17.1503 11.5348 16.9821 11.6061L16.9807 11.6067C13.5954 13.0343 11.294 16.4367 11.5745 20.3217L11.5746 20.3234C11.8802 24.6955 15.6042 28.2796 20.0694 28.4762C23.2244 28.613 26.0393 27.1433 27.7262 24.8344L27.7286 24.8312C27.8302 24.6936 27.8902 24.5838 27.9241 24.5035C27.8388 24.4992 27.7163 24.5049 27.551 24.5351L27.5485 24.5355C26.8759 24.656 26.1833 24.7061 25.4622 24.6761C20.5495 24.4752 16.5243 20.374 16.5034 15.4975C16.4935 14.1869 16.7661 12.946 17.2596 11.8177C17.3216 11.6752 17.3515 11.5671 17.3647 11.4913ZM17.4873 11.4888C17.4873 11.4888 17.4868 11.4887 17.4859 11.4885L17.4873 11.4888Z" fill="#D8D8D8"/>
</svg>
