<svg width="48" height="48" viewBox="0 0 48 48" fill="none" xmlns="http://www.w3.org/2000/svg">
<rect width="48" height="48" rx="24" fill="#D4DEE8" fill-opacity="0.08"/>
<path d="M30 30.86H29.24C28.44 30.86 27.68 31.17 27.12 31.73L25.41 33.42C24.63 34.19 23.36 34.19 22.58 33.42L20.87 31.73C20.31 31.17 19.54 30.86 18.75 30.86H18C16.34 30.86 15 29.53 15 27.89V16.98C15 15.34 16.34 14.01 18 14.01H30C31.66 14.01 33 15.34 33 16.98V27.89C33 29.52 31.66 30.86 30 30.86Z" stroke="white" stroke-width="1.5" stroke-miterlimit="10" stroke-linecap="round" stroke-linejoin="round"/>
<path d="M24 22.0001C25.2868 22.0001 26.33 20.9569 26.33 19.67C26.33 18.3832 25.2868 17.3401 24 17.3401C22.7132 17.3401 21.67 18.3832 21.67 19.67C21.67 20.9569 22.7132 22.0001 24 22.0001Z" stroke="white" stroke-width="1.5" stroke-linecap="round" stroke-linejoin="round"/>
<path d="M28 27.6601C28 25.8601 26.21 24.4001 24 24.4001C21.79 24.4001 20 25.8601 20 27.6601" stroke="white" stroke-width="1.5" stroke-linecap="round" stroke-linejoin="round"/>
</svg>
