<svg width="40" height="40" viewBox="0 0 40 40" fill="none" xmlns="http://www.w3.org/2000/svg">
<rect width="40" height="40" rx="20" fill="#F5FBFF"/>
<g clip-path="url(#clip0_46_3454)">
<path d="M19.3125 13.333H17.9792C14.6458 13.333 13.3125 14.6663 13.3125 17.9997V21.9997C13.3125 25.333 14.6458 26.6663 17.9792 26.6663H21.9792C25.3125 26.6663 26.6458 25.333 26.6458 21.9997V20.6663" stroke="#2C7EF8" stroke-linecap="round" stroke-linejoin="round"/>
<path d="M26.5824 14.3732C25.7624 16.4198 23.7024 19.2065 21.9824 20.5865L20.9291 21.4265C20.7957 21.5265 20.6624 21.6065 20.5091 21.6665C20.5091 21.5665 20.5024 21.4665 20.4891 21.3598C20.4291 20.9132 20.2291 20.4932 19.8691 20.1398C19.5024 19.7732 19.0624 19.5665 18.6091 19.5065C18.5024 19.4998 18.3957 19.4932 18.2891 19.4998C18.3491 19.3332 18.4357 19.1798 18.5491 19.0532L19.3891 17.9998C20.7691 16.2798 23.5624 14.2065 25.6024 13.3865C25.9157 13.2665 26.2224 13.3598 26.4157 13.5532C26.6157 13.7532 26.7091 14.0598 26.5824 14.3732Z" stroke="#2C7EF8" stroke-linecap="round" stroke-linejoin="round"/>
<path d="M20.5149 21.6606C20.5149 22.2473 20.2882 22.8073 19.8682 23.234C19.5415 23.5606 19.1015 23.7873 18.5749 23.854L17.2615 23.994C16.5482 24.074 15.9349 23.4673 16.0149 22.7406L16.1549 21.4273C16.2815 20.2606 17.2549 19.514 18.2949 19.494C18.4015 19.4873 18.5082 19.494 18.6149 19.5006C19.0682 19.5606 19.5082 19.7673 19.8749 20.134C20.2349 20.494 20.4349 20.9073 20.4949 21.354C20.5082 21.4606 20.5149 21.5673 20.5149 21.6606Z" stroke="#2C7EF8" stroke-linecap="round" stroke-linejoin="round"/>
<path d="M22.5501 19.9866C22.5501 18.5933 21.4234 17.46 20.0234 17.46" stroke="#2C7EF8" stroke-linecap="round" stroke-linejoin="round"/>
</g>
<defs>
<clipPath id="clip0_46_3454">
<rect width="16" height="16" fill="white" transform="translate(12 12)"/>
</clipPath>
</defs>
</svg>
