<svg width="40" height="40" viewBox="0 0 40 40" fill="none" xmlns="http://www.w3.org/2000/svg">
<rect width="40" height="40" rx="20" fill="#F5FBFF"/>
<path d="M15.3335 18.6667H16.6668C18.0002 18.6667 18.6668 18 18.6668 16.6667V15.3334C18.6668 14 18.0002 13.3334 16.6668 13.3334H15.3335C14.0002 13.3334 13.3335 14 13.3335 15.3334V16.6667C13.3335 18 14.0002 18.6667 15.3335 18.6667Z" stroke="#2C7EF8" stroke-miterlimit="10" stroke-linecap="round" stroke-linejoin="round"/>
<path d="M23.3335 18.6667H24.6668C26.0002 18.6667 26.6668 18 26.6668 16.6667V15.3334C26.6668 14 26.0002 13.3334 24.6668 13.3334H23.3335C22.0002 13.3334 21.3335 14 21.3335 15.3334V16.6667C21.3335 18 22.0002 18.6667 23.3335 18.6667Z" stroke="#2C7EF8" stroke-miterlimit="10" stroke-linecap="round" stroke-linejoin="round"/>
<path d="M23.3335 26.6667H24.6668C26.0002 26.6667 26.6668 26 26.6668 24.6667V23.3334C26.6668 22 26.0002 21.3334 24.6668 21.3334H23.3335C22.0002 21.3334 21.3335 22 21.3335 23.3334V24.6667C21.3335 26 22.0002 26.6667 23.3335 26.6667Z" stroke="#2C7EF8" stroke-miterlimit="10" stroke-linecap="round" stroke-linejoin="round"/>
<path d="M15.3335 26.6667H16.6668C18.0002 26.6667 18.6668 26 18.6668 24.6667V23.3334C18.6668 22 18.0002 21.3334 16.6668 21.3334H15.3335C14.0002 21.3334 13.3335 22 13.3335 23.3334V24.6667C13.3335 26 14.0002 26.6667 15.3335 26.6667Z" stroke="#2C7EF8" stroke-miterlimit="10" stroke-linecap="round" stroke-linejoin="round"/>
</svg>
