<svg width="24" height="24" viewBox="0 0 24 24" fill="none" xmlns="http://www.w3.org/2000/svg">
<path fill-rule="evenodd" clip-rule="evenodd" d="M11.9997 6.8555C9.16661 6.8555 6.86993 9.15218 6.86993 11.9853C6.86993 14.8184 9.16661 17.1151 11.9997 17.1151C14.8328 17.1151 17.1295 14.8184 17.1295 11.9853C17.1295 9.15218 14.8328 6.8555 11.9997 6.8555ZM5.36993 11.9853C5.36993 8.32375 8.33819 5.3555 11.9997 5.3555C15.6612 5.3555 18.6295 8.32375 18.6295 11.9853C18.6295 15.6468 15.6612 18.6151 11.9997 18.6151C8.33819 18.6151 5.36993 15.6468 5.36993 11.9853Z" fill="white"/>
<path fill-rule="evenodd" clip-rule="evenodd" d="M12.0001 1.93948C12.5524 1.93948 13.0001 2.3872 13.0001 2.93948V3.01185C13.0001 3.56413 12.5524 4.01185 12.0001 4.01185C11.4478 4.01185 11.0001 3.56413 11.0001 3.01185V2.93948C11.0001 2.3872 11.4478 1.93948 12.0001 1.93948ZM4.83428 4.81948C5.22481 4.42896 5.85797 4.42896 6.24849 4.81948L6.36609 4.93708C6.75661 5.3276 6.75661 5.96076 6.36609 6.35129C5.97557 6.74181 5.3424 6.74181 4.95188 6.35129L4.83428 6.23369C4.44376 5.84317 4.44376 5.21 4.83428 4.81948ZM19.1659 4.81948C19.5564 5.21001 19.5564 5.84318 19.1659 6.2337L19.0483 6.35129C18.6578 6.74181 18.0246 6.74181 17.6341 6.35128C17.2436 5.96076 17.2436 5.32759 17.6341 4.93707L17.7517 4.81948C18.1422 4.42895 18.7754 4.42896 19.1659 4.81948ZM1.95428 11.9853C1.95428 11.433 2.402 10.9853 2.95428 10.9853H3.02665C3.57894 10.9853 4.02665 11.433 4.02665 11.9853C4.02665 12.5376 3.57894 12.9853 3.02665 12.9853H2.95428C2.402 12.9853 1.95428 12.5376 1.95428 11.9853ZM19.9735 11.9853C19.9735 11.433 20.4213 10.9853 20.9735 10.9853H21.0459C21.5982 10.9853 22.0459 11.433 22.0459 11.9853C22.0459 12.5376 21.5982 12.9853 21.0459 12.9853H20.9735C20.4213 12.9853 19.9735 12.5376 19.9735 11.9853ZM6.36609 17.6193C6.75661 18.0098 6.75662 18.643 6.36609 19.0335L6.2485 19.1511C5.85798 19.5416 5.22481 19.5416 4.83429 19.1511C4.44376 18.7606 4.44375 18.1274 4.83428 17.7369L4.95187 17.6193C5.34239 17.2288 5.97556 17.2288 6.36609 17.6193ZM17.6341 17.6193C18.0246 17.2288 18.6578 17.2288 19.0483 17.6193L19.1659 17.7369C19.5564 18.1274 19.5564 18.7606 19.1659 19.1511C18.7754 19.5416 18.1422 19.5416 17.7517 19.1511L17.6341 19.0335C17.2436 18.643 17.2436 18.0098 17.6341 17.6193ZM12.0001 19.9587C12.5524 19.9587 13.0001 20.4065 13.0001 20.9587V21.0311C13.0001 21.5834 12.5524 22.0311 12.0001 22.0311C11.4478 22.0311 11.0001 21.5834 11.0001 21.0311V20.9587C11.0001 20.4065 11.4478 19.9587 12.0001 19.9587Z" fill="white"/>
</svg>
