<svg width="328" height="282" viewBox="0 0 328 282" fill="none" xmlns="http://www.w3.org/2000/svg">
<g clip-path="url(#clip0_46_3890)">
<path d="M117.334 10H116.454V3.88H117.334V10ZM121.437 10.1C119.577 10.1 118.667 9 118.667 6.98C118.667 4.75 119.577 3.79 121.437 3.79C123.297 3.79 124.197 4.75 124.197 6.98C124.197 9 123.297 10.1 121.437 10.1ZM121.437 9.29C122.707 9.29 123.317 8.51 123.317 6.98C123.317 5.23 122.707 4.59 121.437 4.59C120.157 4.59 119.557 5.23 119.557 6.98C119.557 8.51 120.157 9.29 121.437 9.29ZM127.14 10.1C126.4 10.1 125.79 9.99 125.33 9.79V9.05C125.83 9.24 126.44 9.39 127.06 9.39C128.03 9.39 128.55 9.08 128.55 8.38C128.55 7.73 128.05 7.47 126.94 7.2C125.64 6.85 125.2 6.41 125.2 5.49C125.2 4.43 125.9 3.79 127.43 3.79C128.05 3.79 128.76 3.91 129.09 4.03V4.77C128.61 4.58 128.11 4.5 127.59 4.5C126.61 4.5 126.09 4.8 126.09 5.49C126.09 6.05 126.44 6.28 127.59 6.56C129.03 6.9 129.44 7.44 129.44 8.38C129.44 9.5 128.65 10.1 127.14 10.1ZM137.004 9.68C137.004 11.39 135.984 12.44 134.404 12.44H133.174L133.094 11.58H134.414C135.484 11.58 136.164 10.97 136.174 10H135.174C133.784 10 133.234 9.44 133.234 8.25C133.234 6.99 134.014 6.13 135.134 6.13C136.294 6.13 137.004 6.96 137.004 8.3V9.68ZM134.064 8.2C134.064 8.88 134.354 9.14 135.224 9.14H136.174V8.36C136.174 7.44 135.794 6.97 135.084 6.97C134.464 6.97 134.064 7.47 134.064 8.2ZM143.127 9.14C143.597 9.14 143.907 8.91 143.907 8.6C143.907 8.31 143.717 7.81 142.797 5.33L143.567 4.98L144.737 8.3C144.947 8.9 145.167 9.14 145.647 9.14H145.857C145.907 9.14 145.957 9.19 145.957 9.58C145.957 9.99 145.907 10 145.857 10H145.617C145.017 10 144.617 9.81 144.387 9.37C144.137 9.81 143.737 10 143.127 10H140.787L140.707 9.14H143.127ZM147.71 6.78H148.54V8.41C148.54 9.41 147.88 10 146.9 10H145.86C145.82 10 145.76 9.97 145.76 9.58C145.76 9.18 145.82 9.14 145.86 9.14H146.9C147.37 9.14 147.71 8.88 147.71 8.4V6.78ZM147.98 11.26V12.06H145.34V11.26H147.98ZM153.947 9.68C153.947 11.39 152.927 12.44 151.347 12.44H150.117L150.037 11.58H151.357C152.427 11.58 153.107 10.97 153.117 10H152.117C150.727 10 150.177 9.44 150.177 8.25C150.177 6.99 150.957 6.13 152.077 6.13C153.237 6.13 153.947 6.96 153.947 8.3V9.68ZM151.007 8.2C151.007 8.88 151.297 9.14 152.167 9.14H153.117V8.36C153.117 7.44 152.737 6.97 152.027 6.97C151.407 6.97 151.007 7.47 151.007 8.2ZM157.344 9.71C157.344 11.4 156.274 12.44 154.724 12.44H154.444L154.364 11.58H154.704C155.834 11.58 156.514 10.89 156.514 9.71V6.78H157.344V9.71ZM161.086 9.14C161.556 9.14 161.866 8.91 161.866 8.6C161.866 8.31 161.676 7.81 160.756 5.33L161.526 4.98L162.696 8.3C162.906 8.9 163.126 9.14 163.606 9.14H163.816C163.866 9.14 163.916 9.19 163.916 9.58C163.916 9.99 163.866 10 163.816 10H163.576C162.976 10 162.576 9.81 162.346 9.37C162.096 9.81 161.696 10 161.086 10H158.746L158.666 9.14H161.086ZM166.039 5.58H164.979V4.75H166.039V5.58ZM166.499 8.41C166.499 9.41 165.839 10 164.859 10H163.819C163.779 10 163.719 9.97 163.719 9.58C163.719 9.18 163.779 9.14 163.819 9.14H164.859C165.329 9.14 165.669 8.88 165.669 8.4V6.78H166.499V8.41ZM168.196 10V3.53H169.026V10H168.196ZM176.335 6.48H175.275V5.65H176.335V6.48ZM178.895 8.43C178.895 8.86 179.175 9.14 179.675 9.14H179.865C179.905 9.14 179.965 9.18 179.965 9.58C179.965 9.97 179.905 10 179.865 10H179.705C179.355 10 179.035 9.88 178.895 9.71V9.83C178.865 11.37 177.765 12.44 176.175 12.44H175.735C174.045 12.44 173.115 11.41 173.115 9.67V7.78H173.945V9.65C173.945 10.91 174.565 11.58 175.755 11.58H176.175C177.315 11.58 178.065 10.87 178.065 9.73V6.78H178.895V8.43ZM185.084 3.42V4.21H184.174V3.42H185.084ZM183.304 5.58V4.79H185.944V5.58H183.304ZM188.684 9.14C188.734 9.14 188.794 9.18 188.794 9.58C188.794 9.97 188.734 10 188.684 10H188.394C187.764 10 187.344 9.81 187.154 9.41C186.914 9.81 186.494 10 185.914 10C185.224 10 184.804 9.78 184.614 9.38C184.374 9.78 183.934 10 183.304 10C182.564 10 182.144 9.78 181.954 9.38C181.714 9.78 181.274 10 180.644 10H179.864C179.824 10 179.764 9.97 179.764 9.58C179.764 9.18 179.824 9.14 179.864 9.14H180.644C181.244 9.14 181.574 8.83 181.574 8.35V6.78H182.414V8.35C182.414 8.85 182.694 9.14 183.304 9.14C183.904 9.14 184.234 8.83 184.234 8.35V6.78H185.064V8.35C185.064 8.85 185.354 9.14 185.914 9.14C186.474 9.14 186.774 8.83 186.774 8.35V6.78H187.604V8.35C187.604 8.88 187.884 9.14 188.394 9.14H188.684ZM192.652 9.14C192.692 9.14 192.752 9.18 192.752 9.57C192.752 9.97 192.692 10 192.652 10H192.342C191.752 10 191.332 9.81 191.142 9.41C190.902 9.81 190.462 10 189.892 10H188.692C188.652 10 188.592 9.97 188.592 9.58C188.592 9.18 188.652 9.14 188.692 9.14H189.892C190.402 9.14 190.742 8.86 190.742 8.4V6.78H191.572V8.38C191.572 8.88 191.852 9.14 192.372 9.14H192.652ZM190.752 11.26V12.06H188.112V11.26H190.752ZM195.427 9.14C196.007 9.14 196.347 8.89 196.347 8.51C196.347 8.24 196.227 8 195.937 7.7L193.587 5.37V4.65L197.237 3.2L197.487 4L194.567 5.15L196.547 7.14C198.387 8.99 198.637 9.14 199.247 9.14C199.287 9.14 199.347 9.18 199.347 9.58C199.347 9.97 199.287 10 199.247 10C198.437 10 198.107 9.85 197.067 8.81C197.017 9.49 196.427 10 195.427 10H192.657C192.617 10 192.557 9.97 192.557 9.58C192.557 9.18 192.617 9.14 192.657 9.14H195.427ZM203.209 9.14C203.249 9.14 203.309 9.18 203.309 9.57C203.309 9.97 203.249 10 203.209 10H202.899C202.309 10 201.889 9.81 201.699 9.41C201.459 9.81 201.019 10 200.449 10H199.249C199.209 10 199.149 9.97 199.149 9.58C199.149 9.18 199.209 9.14 199.249 9.14H200.449C200.959 9.14 201.299 8.86 201.299 8.4V6.78H202.129V8.38C202.129 8.88 202.409 9.14 202.929 9.14H203.209ZM201.309 11.26V12.06H198.669V11.26H201.309ZM203.524 9.14C203.994 9.14 204.324 8.86 204.324 8.4V3.53H205.164V8.35C205.164 8.92 205.504 9.14 205.934 9.14H206.184C206.224 9.14 206.284 9.18 206.284 9.57C206.284 9.97 206.224 10 206.184 10H205.904C205.324 10 204.904 9.79 204.744 9.4C204.514 9.79 204.094 10 203.524 10H203.214C203.174 10 203.114 9.97 203.114 9.58C203.114 9.18 203.174 9.14 203.214 9.14H203.524ZM208.033 6.78H208.863V8.41C208.863 9.41 208.203 10 207.223 10H206.183C206.143 10 206.083 9.97 206.083 9.58C206.083 9.18 206.143 9.14 206.183 9.14H207.223C207.693 9.14 208.033 8.88 208.033 8.4V6.78ZM208.303 11.26V12.06H205.663V11.26H208.303ZM206.543 13.42V12.64H207.423V13.42H206.543ZM210.559 10V3.53H211.389V10H210.559Z" fill="white"/>
<path d="M106.984 42.9C106.171 42.42 105.538 41.9333 105.084 41.44L106.344 39.84C106.824 40.36 107.458 40.8467 108.244 41.3L106.984 42.9ZM115.904 44C114.704 44 113.931 43.7867 113.584 43.36C113.531 44.28 113.351 45.1067 113.044 45.84C112.738 46.5733 112.338 47.14 111.844 47.54C111.164 48.1 110.171 48.58 108.864 48.98C107.558 49.3933 106.284 49.6 105.044 49.6C103.298 49.6 101.984 49.2267 101.104 48.48C100.238 47.7467 99.8043 46.7067 99.8043 45.36C99.8043 43.88 100.191 41.9733 100.964 39.64L101.924 39.92C101.444 41.72 101.204 43.1267 101.204 44.14C101.204 45.0733 101.571 45.8067 102.304 46.34C103.038 46.8733 104.104 47.14 105.504 47.14C106.371 47.14 107.284 47.0333 108.244 46.82C109.204 46.62 110.051 46.36 110.784 46.04C111.531 45.72 112.024 45.4067 112.264 45.1C112.358 44.9667 112.404 44.7467 112.404 44.44C112.404 43.8667 112.298 43.02 112.084 41.9C111.884 40.7667 111.631 39.6267 111.324 38.48L113.004 37.5C113.191 38.66 113.398 39.52 113.624 40.08C113.864 40.64 114.178 41.0267 114.564 41.24C114.964 41.44 115.544 41.54 116.304 41.54L115.904 44ZM131.915 44C130.368 44 129.402 43.4333 129.015 42.3C128.775 42.8867 128.475 43.32 128.115 43.6C127.755 43.8667 127.375 44 126.975 44C126.428 44 125.955 43.8467 125.555 43.54C125.168 43.2333 124.915 42.82 124.795 42.3C124.235 43.4333 123.368 44 122.195 44C121.542 44 120.995 43.84 120.555 43.52C120.115 43.2 119.835 42.74 119.715 42.14C119.382 42.7933 118.915 43.2667 118.315 43.56C117.715 43.8533 116.908 44 115.895 44C115.842 44 115.795 43.9267 115.755 43.78C115.702 43.6333 115.675 43.44 115.675 43.2C115.675 42.7333 115.742 42.34 115.875 42.02C115.995 41.7 116.135 41.54 116.295 41.54C117.388 41.54 118.195 41.38 118.715 41.06C119.235 40.7267 119.535 40.1933 119.615 39.46L119.715 38.34L120.775 38.24V39.54C120.775 40.1533 120.928 40.64 121.235 41C121.542 41.36 121.982 41.54 122.555 41.54C123.168 41.54 123.648 41.38 123.995 41.06C124.355 40.7267 124.568 40.2733 124.635 39.7L124.715 38.62L125.775 38.52V39.56C125.775 40.1867 125.915 40.6733 126.195 41.02C126.475 41.3667 126.855 41.54 127.335 41.54C128.135 41.54 128.555 40.8933 128.595 39.6L128.655 37.88L129.895 37.66V39.2C129.895 39.9867 130.082 40.5733 130.455 40.96C130.842 41.3467 131.462 41.54 132.315 41.54L131.915 44ZM124.715 32.86C124.422 32.6867 124.122 32.4733 123.815 32.22C123.508 31.9533 123.275 31.7133 123.115 31.5L124.295 30.04C124.468 30.24 124.702 30.4667 124.995 30.72C125.302 30.9733 125.608 31.2 125.915 31.4L124.715 32.86ZM122.995 33C123.168 33.2 123.415 33.4333 123.735 33.7C124.055 33.9667 124.388 34.2067 124.735 34.42L123.535 35.92C123.202 35.7067 122.868 35.4733 122.535 35.22C122.202 34.9533 121.942 34.7133 121.755 34.5L122.995 33ZM126.695 35.92C126.348 35.7067 126.008 35.4733 125.675 35.22C125.342 34.9533 125.088 34.7133 124.915 34.5L126.115 33C126.288 33.2133 126.542 33.4533 126.875 33.72C127.208 33.9733 127.555 34.2067 127.915 34.42L126.695 35.92ZM139.411 44C138.544 44 137.864 43.8267 137.371 43.48C136.877 43.12 136.564 42.5667 136.431 41.82C136.124 42.58 135.637 43.1333 134.971 43.48C134.304 43.8267 133.397 44 132.251 44H131.911C131.857 44 131.811 43.9267 131.771 43.78C131.717 43.6333 131.691 43.44 131.691 43.2C131.691 42.7333 131.757 42.34 131.891 42.02C132.011 41.7 132.151 41.54 132.311 41.54H132.651C133.877 41.54 134.751 41.38 135.271 41.06C135.791 40.74 136.064 40.2267 136.091 39.52L136.131 37.88L137.371 37.66V39.2C137.371 39.9867 137.564 40.5733 137.951 40.96C138.337 41.3467 138.957 41.54 139.811 41.54L139.411 44ZM131.511 45.98C131.684 46.18 131.931 46.4133 132.251 46.68C132.571 46.9467 132.904 47.1867 133.251 47.4L132.051 48.9C131.717 48.6867 131.384 48.4467 131.051 48.18C130.717 47.9267 130.457 47.6933 130.271 47.48L131.511 45.98ZM135.211 48.9C134.864 48.6867 134.524 48.4467 134.191 48.18C133.857 47.9267 133.604 47.6933 133.431 47.48L134.631 45.98C134.804 46.1933 135.057 46.4267 135.391 46.68C135.724 46.9467 136.071 47.1867 136.431 47.4L135.211 48.9ZM151.471 44C150.791 44 150.157 43.8867 149.571 43.66C148.984 43.42 148.331 43.0133 147.611 42.44C146.904 41.8533 146.037 41.0133 145.011 39.92C144.931 40.6667 144.724 41.34 144.391 41.94C144.057 42.54 143.677 42.9667 143.251 43.22C142.811 43.46 142.257 43.6533 141.591 43.8C140.937 43.9333 140.211 44 139.411 44C139.357 44 139.311 43.9267 139.271 43.78C139.217 43.6333 139.191 43.44 139.191 43.2C139.191 42.7333 139.257 42.34 139.391 42.02C139.511 41.7 139.651 41.54 139.811 41.54C140.904 41.54 141.811 41.4533 142.531 41.28C143.264 41.0933 143.717 40.84 143.891 40.52C143.851 40.1733 143.731 39.8067 143.531 39.42C143.331 39.0333 142.957 38.5267 142.411 37.9C141.877 37.2733 141.104 36.4667 140.091 35.48L140.831 32.62L150.351 28.42L150.371 30.46L141.471 34.22L145.451 37.86C146.597 38.8867 147.517 39.66 148.211 40.18C148.904 40.6867 149.517 41.04 150.051 41.24C150.597 41.44 151.204 41.54 151.871 41.54L151.471 44ZM158.961 44C158.095 44 157.415 43.8267 156.921 43.48C156.428 43.12 156.115 42.5667 155.981 41.82C155.675 42.58 155.188 43.1333 154.521 43.48C153.855 43.8267 152.948 44 151.801 44H151.461C151.408 44 151.361 43.9267 151.321 43.78C151.268 43.6333 151.241 43.44 151.241 43.2C151.241 42.7333 151.308 42.34 151.441 42.02C151.561 41.7 151.701 41.54 151.861 41.54H152.201C153.428 41.54 154.301 41.38 154.821 41.06C155.341 40.74 155.615 40.2267 155.641 39.52L155.681 37.88L156.921 37.66V39.2C156.921 39.9867 157.115 40.5733 157.501 40.96C157.888 41.3467 158.508 41.54 159.361 41.54L158.961 44ZM151.061 45.98C151.235 46.18 151.481 46.4133 151.801 46.68C152.121 46.9467 152.455 47.1867 152.801 47.4L151.601 48.9C151.268 48.6867 150.935 48.4467 150.601 48.18C150.268 47.9267 150.008 47.6933 149.821 47.48L151.061 45.98ZM154.761 48.9C154.415 48.6867 154.075 48.4467 153.741 48.18C153.408 47.9267 153.155 47.6933 152.981 47.48L154.181 45.98C154.355 46.1933 154.608 46.4267 154.941 46.68C155.275 46.9467 155.621 47.1867 155.981 47.4L154.761 48.9ZM165.261 44C164.421 44 163.755 43.8333 163.261 43.5C162.768 43.1533 162.415 42.62 162.201 41.9C161.975 42.66 161.661 43.1733 161.261 43.44C160.741 43.8133 159.975 44 158.961 44C158.908 44 158.861 43.9267 158.821 43.78C158.768 43.6333 158.741 43.44 158.741 43.2C158.741 42.7333 158.808 42.34 158.941 42.02C159.061 41.7 159.201 41.54 159.361 41.54C160.028 41.54 160.555 41.4733 160.941 41.34C161.341 41.2067 161.568 40.9733 161.621 40.64C161.648 40.4533 161.661 40.2133 161.661 39.92C161.661 39.6533 161.648 39.32 161.621 38.92L161.341 29.08L163.281 28.44L163.221 38.56C163.208 39.6267 163.388 40.3933 163.761 40.86C164.148 41.3133 164.781 41.54 165.661 41.54L165.261 44ZM169.73 36.22C169.877 36.8467 170.01 37.5267 170.13 38.26C170.25 38.9933 170.31 39.54 170.31 39.9C170.31 40.5533 170.123 41.2533 169.75 42C169.39 42.7333 168.97 43.2267 168.49 43.48C167.823 43.8267 166.75 44 165.27 44C165.217 44 165.17 43.9267 165.13 43.78C165.077 43.6333 165.05 43.44 165.05 43.2C165.05 42.7333 165.117 42.34 165.25 42.02C165.37 41.7 165.51 41.54 165.67 41.54C167.71 41.54 168.83 41.3533 169.03 40.98C168.99 40.6067 168.87 40.0533 168.67 39.32C168.47 38.5733 168.25 37.8733 168.01 37.22L169.73 36.22ZM164.83 45.98C165.003 46.18 165.25 46.4133 165.57 46.68C165.89 46.9467 166.223 47.1867 166.57 47.4L165.37 48.9C165.037 48.6867 164.703 48.4467 164.37 48.18C164.037 47.9267 163.777 47.6933 163.59 47.48L164.83 45.98ZM168.53 48.9C168.183 48.6867 167.843 48.4467 167.51 48.18C167.177 47.9267 166.923 47.6933 166.75 47.48L167.95 45.98C168.123 46.1933 168.377 46.4267 168.71 46.68C169.043 46.9467 169.39 47.1867 169.75 47.4L168.53 48.9ZM167.17 51.86C166.863 51.6733 166.557 51.4467 166.25 51.18C165.957 50.9267 165.73 50.6933 165.57 50.48L166.75 49.02C166.91 49.2333 167.137 49.46 167.43 49.7C167.737 49.9533 168.05 50.18 168.37 50.38L167.17 51.86ZM173.685 44.16L173.085 29.08L175.085 28.44L174.985 43.9L173.685 44.16ZM185.144 33.94C185.678 34.4333 186.471 35.1 187.524 35.94C188.178 36.4733 188.664 36.8933 188.984 37.2C189.304 37.4933 189.558 37.8133 189.744 38.16C189.931 38.5067 190.024 38.9067 190.024 39.36C190.024 39.9733 189.871 40.6333 189.564 41.34C189.258 42.0333 188.891 42.5467 188.464 42.88C187.918 43.3333 187.191 43.7 186.284 43.98C185.378 44.26 184.471 44.4 183.564 44.4C182.778 44.4 182.198 44.2 181.824 43.8C181.451 43.4 181.264 42.7933 181.264 41.98C181.264 41.46 181.291 40.84 181.344 40.12L182.324 40.06V40.64C182.324 41.1067 182.438 41.44 182.664 41.64C182.904 41.84 183.338 41.94 183.964 41.94C184.631 41.94 185.338 41.8533 186.084 41.68C186.831 41.4933 187.471 41.2667 188.004 41C188.551 40.7333 188.864 40.4867 188.944 40.26C188.931 39.9933 188.758 39.7133 188.424 39.42C188.104 39.1133 187.578 38.6867 186.844 38.14C185.738 37.34 184.851 36.62 184.184 35.98L185.144 33.94ZM199.585 44C199.279 45.4933 198.559 46.6333 197.425 47.42C196.705 47.94 195.692 48.38 194.385 48.74C193.079 49.1 191.699 49.3267 190.245 49.42C190.085 49.3133 189.932 49.14 189.785 48.9C189.639 48.6733 189.432 48.3067 189.165 47.8L188.865 47.24C194.959 46.84 198.212 45.7533 198.625 43.98V43.88C197.519 43.9867 196.425 44.04 195.345 44.04C194.505 44.04 193.872 43.84 193.445 43.44C193.019 43.0267 192.805 42.46 192.805 41.74C192.805 40.8733 192.945 40.0333 193.225 39.22C193.519 38.3933 193.919 37.7267 194.425 37.22C194.932 36.7 195.499 36.44 196.125 36.44C196.792 36.44 197.379 36.6733 197.885 37.14C198.405 37.5933 198.819 38.2067 199.125 38.98C199.432 39.7533 199.619 40.6067 199.685 41.54H200.985L200.585 44H199.585ZM193.865 40.6C193.865 40.9333 194.012 41.1933 194.305 41.38C194.612 41.5667 195.059 41.66 195.645 41.66C196.619 41.66 197.525 41.6333 198.365 41.58C198.139 40.66 197.799 39.94 197.345 39.42C196.892 38.8867 196.359 38.62 195.745 38.62C195.239 38.62 194.799 38.8267 194.425 39.24C194.052 39.64 193.865 40.0933 193.865 40.6ZM206.882 44C206.042 44 205.376 43.8333 204.882 43.5C204.389 43.1533 204.036 42.62 203.822 41.9C203.596 42.66 203.282 43.1733 202.882 43.44C202.362 43.8133 201.596 44 200.582 44C200.529 44 200.482 43.9267 200.442 43.78C200.389 43.6333 200.362 43.44 200.362 43.2C200.362 42.7333 200.429 42.34 200.562 42.02C200.682 41.7 200.822 41.54 200.982 41.54C201.649 41.54 202.176 41.4733 202.562 41.34C202.962 41.2067 203.189 40.9733 203.242 40.64C203.269 40.4533 203.282 40.2133 203.282 39.92C203.282 39.6533 203.269 39.32 203.242 38.92L202.962 29.08L204.902 28.44L204.842 38.56C204.829 39.6267 205.009 40.3933 205.382 40.86C205.769 41.3133 206.402 41.54 207.282 41.54L206.882 44ZM211.351 36.22C211.498 36.8467 211.631 37.5267 211.751 38.26C211.871 38.9933 211.931 39.54 211.931 39.9C211.931 40.5533 211.744 41.2533 211.371 42C211.011 42.7333 210.591 43.2267 210.111 43.48C209.444 43.8267 208.371 44 206.891 44C206.838 44 206.791 43.9267 206.751 43.78C206.698 43.6333 206.671 43.44 206.671 43.2C206.671 42.7333 206.738 42.34 206.871 42.02C206.991 41.7 207.131 41.54 207.291 41.54C209.331 41.54 210.451 41.3533 210.651 40.98C210.611 40.6067 210.491 40.0533 210.291 39.32C210.091 38.5733 209.871 37.8733 209.631 37.22L211.351 36.22ZM210.211 34.86C209.398 34.38 208.764 33.8933 208.311 33.4L209.571 31.8C210.051 32.32 210.684 32.8067 211.471 33.26L210.211 34.86ZM215.306 44.16L214.706 29.08L216.706 28.44L216.606 43.9L215.306 44.16ZM223.309 33.94C223.842 34.4333 224.635 35.1 225.689 35.94C226.342 36.4733 226.829 36.8933 227.149 37.2C227.469 37.4933 227.722 37.8133 227.909 38.16C228.095 38.5067 228.189 38.9067 228.189 39.36C228.189 39.9733 228.035 40.6333 227.729 41.34C227.422 42.0333 227.055 42.5467 226.629 42.88C226.082 43.3333 225.355 43.7 224.449 43.98C223.542 44.26 222.635 44.4 221.729 44.4C220.942 44.4 220.362 44.2 219.989 43.8C219.615 43.4 219.429 42.7933 219.429 41.98C219.429 41.46 219.455 40.84 219.509 40.12L220.489 40.06V40.64C220.489 41.1067 220.602 41.44 220.829 41.64C221.069 41.84 221.502 41.94 222.129 41.94C222.795 41.94 223.502 41.8533 224.249 41.68C224.995 41.4933 225.635 41.2667 226.169 41C226.715 40.7333 227.029 40.4867 227.109 40.26C227.095 39.9933 226.922 39.7133 226.589 39.42C226.269 39.1133 225.742 38.6867 225.009 38.14C223.902 37.34 223.015 36.62 222.349 35.98L223.309 33.94Z" fill="white"/>
<rect x="69" y="80" width="190" height="394" rx="21.0133" fill="#2F3132"/>
<rect x="77" y="88" width="175" height="379" rx="17" fill="#1C1B25"/>
<rect width="174.55" height="17.055" transform="translate(77 88)" fill="#1C1B25"/>
<path d="M89.2161 100.685L90.9207 98.4627L91.0401 98.4759C90.9738 98.5644 90.9008 98.6351 90.8212 98.6882C90.7416 98.7368 90.6532 98.7722 90.5559 98.7943C90.4631 98.8164 90.3614 98.8275 90.2508 98.8275C89.959 98.8275 89.6959 98.7611 89.4615 98.6285C89.2316 98.4914 89.0481 98.3057 88.9111 98.0714C88.7784 97.8326 88.7121 97.5607 88.7121 97.2556C88.7121 96.9505 88.7828 96.6785 88.9243 96.4398C89.0658 96.201 89.2604 96.0131 89.508 95.876C89.7556 95.7345 90.0342 95.6638 90.3437 95.6638C90.662 95.6638 90.9428 95.7345 91.186 95.876C91.4336 96.0131 91.6282 96.2054 91.7697 96.453C91.9112 96.6962 91.9819 96.977 91.9819 97.2954C91.9819 97.4678 91.962 97.638 91.9222 97.8061C91.8824 97.9741 91.8183 98.1443 91.7299 98.3168C91.6459 98.4892 91.5331 98.6683 91.3916 98.854L89.9988 100.685H89.2161ZM90.3437 98.2571C90.5338 98.2571 90.7018 98.2151 90.8477 98.1311C90.9981 98.0426 91.1153 97.9232 91.1993 97.7729C91.2833 97.6181 91.3253 97.4457 91.3253 97.2556C91.3253 97.0566 91.2811 96.8819 91.1926 96.7316C91.1086 96.5813 90.9937 96.4619 90.8477 96.3734C90.7018 96.285 90.5338 96.2408 90.3437 96.2408C90.158 96.2408 89.9921 96.285 89.8462 96.3734C89.7003 96.4619 89.5831 96.5813 89.4947 96.7316C89.4107 96.8819 89.3687 97.0566 89.3687 97.2556C89.3687 97.4457 89.4107 97.6181 89.4947 97.7729C89.5787 97.9232 89.6937 98.0426 89.8396 98.1311C89.9899 98.2151 90.158 98.2571 90.3437 98.2571ZM93.0672 100.685V99.8887H93.7105V100.685H93.0672ZM93.0672 97.9056V97.1097H93.7105V97.9056H93.0672ZM96.3926 100.764C96.1317 100.764 95.8885 100.718 95.663 100.625C95.4375 100.532 95.243 100.402 95.0794 100.234C94.9158 100.061 94.7942 99.8577 94.7146 99.6234L95.2651 99.3979C95.3579 99.6455 95.5039 99.8378 95.7028 99.9749C95.9018 100.112 96.1317 100.181 96.3926 100.181C96.596 100.181 96.7773 100.141 96.9365 100.061C97.0957 99.9815 97.2195 99.8666 97.3079 99.7162C97.4008 99.5659 97.4472 99.3846 97.4472 99.1724C97.4472 98.9557 97.4008 98.7744 97.3079 98.6285C97.2195 98.4782 97.0957 98.3632 96.9365 98.2836C96.7773 98.204 96.5938 98.1642 96.386 98.1642C96.3197 98.1642 96.2467 98.1686 96.1671 98.1775C96.0919 98.1863 96.0278 98.1996 95.9748 98.2173L95.8355 97.9188L97.1554 96.3071H94.9666V95.7434H97.8916V96.2872L96.6314 97.8392L96.5916 97.6668C96.8878 97.6756 97.1487 97.7442 97.3742 97.8724C97.5997 98.0006 97.7766 98.1753 97.9048 98.3964C98.0331 98.613 98.0972 98.8673 98.0972 99.1591C98.0972 99.4598 98.0242 99.7317 97.8783 99.9749C97.7324 100.218 97.5312 100.41 97.2747 100.552C97.0183 100.693 96.7242 100.764 96.3926 100.764ZM100.898 100.764C100.505 100.764 100.16 100.658 99.8637 100.446C99.5719 100.229 99.3442 99.9307 99.1806 99.5504C99.017 99.1657 98.9352 98.7191 98.9352 98.2106C98.9352 97.7022 99.017 97.2578 99.1806 96.8775C99.3442 96.4928 99.5719 96.1944 99.8637 95.9821C100.156 95.7699 100.498 95.6638 100.892 95.6638C101.285 95.6638 101.628 95.7699 101.92 95.9821C102.212 96.1944 102.439 96.4928 102.603 96.8775C102.771 97.2578 102.855 97.7022 102.855 98.2106C102.855 98.7191 102.773 99.1657 102.61 99.5504C102.446 99.9351 102.216 100.234 101.92 100.446C101.628 100.658 101.288 100.764 100.898 100.764ZM100.898 100.161C101.164 100.161 101.394 100.081 101.588 99.9218C101.783 99.7582 101.933 99.5305 102.039 99.2387C102.15 98.9469 102.205 98.6042 102.205 98.2106C102.205 97.8171 102.15 97.4744 102.039 97.1826C101.933 96.8908 101.781 96.6653 101.582 96.5061C101.387 96.3469 101.157 96.2673 100.892 96.2673C100.626 96.2673 100.397 96.3469 100.202 96.5061C100.007 96.6653 99.8549 96.8908 99.7444 97.1826C99.6382 97.4744 99.5852 97.8171 99.5852 98.2106C99.5852 98.5998 99.6382 98.9402 99.7444 99.2321C99.8549 99.5239 100.007 99.7516 100.202 99.9152C100.401 100.079 100.633 100.161 100.898 100.161ZM104.987 100.685V95.7434H106.732C107.059 95.7434 107.346 95.8053 107.594 95.9291C107.841 96.0529 108.034 96.2297 108.171 96.4597C108.312 96.6896 108.383 96.9593 108.383 97.2688C108.383 97.5783 108.312 97.8481 108.171 98.078C108.034 98.3035 107.841 98.4804 107.594 98.6086C107.351 98.7324 107.063 98.7943 106.732 98.7943H105.637V100.685H104.987ZM105.637 98.1974H106.751C106.95 98.1974 107.123 98.1598 107.269 98.0846C107.415 98.0095 107.527 97.9011 107.607 97.7596C107.687 97.6181 107.726 97.4545 107.726 97.2688C107.726 97.0787 107.687 96.9151 107.607 96.778C107.527 96.6365 107.415 96.5282 107.269 96.453C107.123 96.3779 106.95 96.3403 106.751 96.3403H105.637V98.1974ZM109.262 100.685V95.7434H109.859L111.709 98.3765H111.404L113.242 95.7434H113.839V100.685H113.182V96.5658L113.414 96.6387L111.577 99.2254H111.524L109.706 96.6387L109.912 96.5658V100.685H109.262Z" fill="white"/>
<g clip-path="url(#clip1_46_3890)">
<path fill-rule="evenodd" clip-rule="evenodd" d="M188.65 95.0873C188.79 94.9471 188.79 94.7199 188.65 94.5797C188.51 94.4396 188.283 94.4396 188.143 94.5797L187.066 95.6564C186.926 95.7966 186.926 96.0238 187.066 96.164C187.206 96.3042 187.433 96.3042 187.574 96.164L188.65 95.0873ZM193.675 94.5797C193.535 94.4396 193.308 94.4396 193.167 94.5797C193.027 94.7199 193.027 94.9471 193.167 95.0873L194.244 96.164C194.384 96.3042 194.611 96.3042 194.752 96.164C194.892 96.0238 194.892 95.7966 194.752 95.6564L193.675 94.5797ZM190.909 95.9102C189.324 95.9102 188.038 97.1957 188.038 98.7814C188.038 100.367 189.324 101.653 190.909 101.653C192.495 101.653 193.781 100.367 193.781 98.7814C193.781 97.1957 192.495 95.9102 190.909 95.9102ZM187.32 98.7814C187.32 96.7992 188.927 95.1924 190.909 95.1924C192.891 95.1924 194.498 96.7992 194.498 98.7814C194.498 100.764 192.891 102.37 190.909 102.37C188.927 102.37 187.32 100.764 187.32 98.7814ZM190.914 96.6279C191.112 96.6279 191.272 96.7886 191.272 96.9868V98.5893L192.189 99.2005C192.354 99.3104 192.399 99.5333 192.289 99.6982C192.179 99.8631 191.956 99.9077 191.791 99.7978L190.874 99.1866C190.776 99.121 190.695 99.0321 190.64 98.9279C190.584 98.8238 190.555 98.7075 190.555 98.5893V96.9868C190.555 96.7886 190.715 96.6279 190.914 96.6279Z" fill="white"/>
</g>
<path fill-rule="evenodd" clip-rule="evenodd" d="M202.125 94.7748C202.245 94.7162 202.389 94.7288 202.496 94.8075L204.774 96.4768C204.864 96.5432 204.917 96.6478 204.915 96.7585C204.914 96.8691 204.858 96.9723 204.766 97.0363L202.762 98.423L204.766 99.8097C204.858 99.8737 204.914 99.9769 204.915 100.088C204.917 100.198 204.864 100.303 204.774 100.369L202.496 102.038C202.389 102.117 202.245 102.13 202.125 102.071C202.005 102.013 201.929 101.893 201.929 101.762V98.9998L200.21 100.189C200.051 100.3 199.83 100.263 199.717 100.107C199.603 99.9509 199.641 99.7348 199.801 99.6243L201.536 98.423L199.801 97.2217C199.641 97.1112 199.603 96.8951 199.717 96.7391C199.83 96.5831 200.051 96.5462 200.21 96.6567L201.929 97.8462V95.0845C201.929 94.9534 202.005 94.8335 202.125 94.7748ZM202.638 99.1852L203.96 100.1L202.638 101.069V99.1852ZM202.638 97.6608V95.7769L203.96 96.7458L202.638 97.6608Z" fill="white"/>
<path fill-rule="evenodd" clip-rule="evenodd" d="M211.795 96.4388C212.368 96.2008 212.982 96.0787 213.602 96.0795L213.603 96.0795C214.908 96.0795 216.088 96.6093 216.941 97.4664C217.105 97.6312 217.372 97.6318 217.537 97.4677C217.702 97.3036 217.702 97.037 217.538 96.8721C216.533 95.8628 215.141 95.2374 213.603 95.2373L213.603 95.2373L213.603 95.6584V95.2373L213.603 95.2373C212.872 95.2364 212.147 95.3804 211.472 95.661C210.796 95.9417 210.183 96.3535 209.667 96.8725C209.503 97.0375 209.504 97.3042 209.669 97.4681C209.834 97.632 210.101 97.6311 210.265 97.466C210.702 97.0259 211.222 96.6768 211.795 96.4388ZM212.373 97.9094C212.761 97.7435 213.18 97.6582 213.602 97.6587H213.603C214.026 97.6582 214.444 97.7435 214.833 97.9094C215.222 98.0753 215.573 98.3184 215.865 98.624C216.025 98.7922 216.292 98.7983 216.46 98.6376C216.628 98.477 216.634 98.2104 216.473 98.0422C216.103 97.6542 215.657 97.3455 215.164 97.1348C214.67 96.9242 214.139 96.8159 213.603 96.8165L213.603 96.8165L213.603 97.2376L213.602 96.8165L213.603 96.8165C213.066 96.8159 212.535 96.9242 212.042 97.1348C211.549 97.3455 211.103 97.6542 210.732 98.0422C210.572 98.2104 210.578 98.477 210.746 98.6376C210.914 98.7983 211.181 98.7922 211.341 98.624C211.633 98.3184 211.984 98.0753 212.373 97.9094ZM212.962 99.3759C213.163 99.2847 213.381 99.2376 213.602 99.2379L213.603 99.2379C214.068 99.2379 214.486 99.4423 214.771 99.7672C214.924 99.942 215.19 99.9594 215.365 99.806C215.54 99.6526 215.557 99.3866 215.404 99.2117C214.966 98.7124 214.321 98.3957 213.603 98.3956L213.603 98.3956L213.603 98.8168V98.3956H213.603C213.262 98.3953 212.925 98.468 212.614 98.6088C212.303 98.7496 212.026 98.9554 211.801 99.2122C211.648 99.3873 211.666 99.6533 211.841 99.8064C212.016 99.9596 212.282 99.9418 212.435 99.7667C212.581 99.6004 212.76 99.4671 212.962 99.3759ZM214.176 100.633C214.176 100.924 213.94 101.159 213.649 101.159C213.359 101.159 213.123 100.924 213.123 100.633C213.123 100.342 213.359 100.106 213.649 100.106C213.94 100.106 214.176 100.342 214.176 100.633Z" fill="white"/>
<path fill-rule="evenodd" clip-rule="evenodd" d="M227.338 95.7892C227.338 95.5275 227.147 95.3154 226.911 95.3154C226.676 95.3154 226.485 95.5275 226.485 95.7892V101.053C226.485 101.315 226.676 101.527 226.911 101.527C227.147 101.527 227.338 101.315 227.338 101.053V95.7892ZM224.166 98.5782C224.166 98.3166 223.975 98.1045 223.739 98.1045C223.504 98.1045 223.313 98.3166 223.313 98.5782V101.052C223.313 101.314 223.504 101.526 223.739 101.526C223.975 101.526 224.166 101.314 224.166 101.052V98.5782ZM222.177 99.5264C222.412 99.5264 222.603 99.7385 222.603 100V101.053C222.603 101.315 222.412 101.527 222.177 101.527C221.941 101.527 221.75 101.315 221.75 101.053V100C221.75 99.7385 221.941 99.5264 222.177 99.5264ZM225.775 97.2101C225.775 96.9484 225.584 96.7363 225.349 96.7363C225.113 96.7363 224.922 96.9484 224.922 97.2101V101.053C224.922 101.314 225.113 101.526 225.349 101.526C225.584 101.526 225.775 101.314 225.775 101.053V97.2101Z" fill="white"/>
<path fill-rule="evenodd" clip-rule="evenodd" d="M231.848 96.0051C232.07 95.783 232.372 95.6582 232.686 95.6582H237.423C237.737 95.6582 238.039 95.783 238.261 96.0051C238.483 96.2272 238.608 96.5285 238.608 96.8426V96.9103C238.773 96.9686 238.924 97.0634 239.05 97.1895C239.273 97.4116 239.397 97.7128 239.397 98.027V98.8165C239.397 99.1307 239.273 99.4319 239.05 99.654C238.924 99.7801 238.773 99.8748 238.608 99.9332V100.001C238.608 100.315 238.483 100.616 238.261 100.838C238.039 101.061 237.737 101.185 237.423 101.185H232.686C232.372 101.185 232.07 101.061 231.848 100.838C231.626 100.616 231.501 100.315 231.501 100.001V96.8426C231.501 96.5285 231.626 96.2272 231.848 96.0051ZM232.686 96.4478C232.581 96.4478 232.481 96.4894 232.407 96.5634C232.333 96.6375 232.291 96.7379 232.291 96.8426V100.001C232.291 100.106 232.333 100.206 232.407 100.28C232.481 100.354 232.581 100.396 232.686 100.396H237.423C237.528 100.396 237.628 100.354 237.702 100.28C237.777 100.206 237.818 100.106 237.818 100.001V99.6061C237.818 99.3881 237.995 99.2113 238.213 99.2113C238.318 99.2113 238.418 99.1697 238.492 99.0957C238.566 99.0217 238.608 98.9212 238.608 98.8165V98.027C238.608 97.9222 238.566 97.8218 238.492 97.7478C238.418 97.6738 238.318 97.6322 238.213 97.6322C237.995 97.6322 237.818 97.4554 237.818 97.2374V96.8426C237.818 96.7379 237.777 96.6375 237.702 96.5634C237.628 96.4894 237.528 96.4478 237.423 96.4478H232.686ZM233.475 97.2374C233.693 97.2374 233.87 97.4141 233.87 97.6322V99.2113C233.87 99.4294 233.693 99.6061 233.475 99.6061C233.257 99.6061 233.081 99.4294 233.081 99.2113V97.6322C233.081 97.4141 233.257 97.2374 233.475 97.2374ZM235.055 97.2374C235.273 97.2374 235.449 97.4141 235.449 97.6322V99.2113C235.449 99.4294 235.273 99.6061 235.055 99.6061C234.837 99.6061 234.66 99.4294 234.66 99.2113V97.6322C234.66 97.4141 234.837 97.2374 235.055 97.2374ZM236.634 97.2374C236.852 97.2374 237.029 97.4141 237.029 97.6322V99.2113C237.029 99.4294 236.852 99.6061 236.634 99.6061C236.416 99.6061 236.239 99.4294 236.239 99.2113V97.6322C236.239 97.4141 236.416 97.2374 236.634 97.2374Z" fill="white"/>
<mask id="path-11-inside-1_46_3890" fill="white">
<path d="M77 105.055H251.55V135.375H77V105.055Z"/>
</mask>
<path d="M77 105.055H251.55V135.375H77V105.055Z" fill="#1C1B25"/>
<path d="M251.55 134.901H77V135.848H251.55V134.901Z" fill="#181A1B" mask="url(#path-11-inside-1_46_3890)"/>
<path d="M91.0042 123.447C90.9142 123.447 90.8242 123.414 90.7531 123.343L87.8775 120.467C87.7401 120.33 87.7401 120.102 87.8775 119.965L90.7531 117.089C90.8905 116.952 91.1179 116.952 91.2553 117.089C91.3927 117.227 91.3927 117.454 91.2553 117.592L88.6307 120.216L91.2553 122.841C91.3927 122.978 91.3927 123.205 91.2553 123.343C91.189 123.414 91.0942 123.447 91.0042 123.447Z" fill="#0C1931"/>
<path d="M96.1811 120.572H88.2079C88.0136 120.572 87.8525 120.411 87.8525 120.217C87.8525 120.022 88.0136 119.861 88.2079 119.861H96.1811C96.3753 119.861 96.5364 120.022 96.5364 120.217C96.5364 120.411 96.3753 120.572 96.1811 120.572Z" fill="#0C1931"/>
<path d="M108.627 123.328C108.185 123.328 107.775 123.246 107.396 123.082C107.017 122.912 106.694 122.681 106.429 122.39C106.164 122.1 105.968 121.765 105.842 121.386L106.789 120.988C106.96 121.424 107.209 121.759 107.538 121.992C107.866 122.226 108.245 122.343 108.675 122.343C108.927 122.343 109.148 122.305 109.338 122.229C109.527 122.147 109.673 122.034 109.774 121.888C109.881 121.743 109.935 121.576 109.935 121.386C109.935 121.127 109.862 120.922 109.717 120.77C109.572 120.619 109.357 120.499 109.073 120.41L107.746 119.993C107.216 119.829 106.811 119.579 106.533 119.245C106.255 118.904 106.116 118.506 106.116 118.051C106.116 117.653 106.214 117.305 106.41 117.009C106.606 116.705 106.874 116.469 107.216 116.298C107.563 116.127 107.958 116.042 108.4 116.042C108.823 116.042 109.208 116.118 109.556 116.27C109.903 116.415 110.2 116.617 110.447 116.876C110.699 117.135 110.882 117.435 110.996 117.776L110.068 118.183C109.929 117.811 109.711 117.523 109.414 117.321C109.123 117.119 108.785 117.018 108.4 117.018C108.166 117.018 107.961 117.059 107.784 117.141C107.607 117.217 107.468 117.331 107.367 117.482C107.272 117.628 107.225 117.798 107.225 117.994C107.225 118.221 107.298 118.424 107.443 118.6C107.588 118.777 107.809 118.91 108.106 118.998L109.338 119.387C109.9 119.557 110.323 119.804 110.608 120.126C110.892 120.442 111.034 120.836 111.034 121.31C111.034 121.702 110.93 122.049 110.721 122.352C110.519 122.656 110.238 122.896 109.878 123.073C109.518 123.243 109.101 123.328 108.627 123.328ZM114.212 123.272C113.676 123.272 113.259 123.12 112.962 122.817C112.665 122.514 112.516 122.087 112.516 121.538V119.055H111.616V118.089H111.758C111.999 118.089 112.185 118.019 112.317 117.88C112.45 117.741 112.516 117.552 112.516 117.312V116.914H113.587V118.089H114.753V119.055H113.587V121.49C113.587 121.667 113.616 121.819 113.672 121.945C113.729 122.065 113.821 122.16 113.947 122.229C114.074 122.292 114.238 122.324 114.44 122.324C114.49 122.324 114.547 122.321 114.61 122.315C114.674 122.308 114.734 122.302 114.79 122.296V123.215C114.702 123.227 114.604 123.24 114.497 123.253C114.389 123.265 114.295 123.272 114.212 123.272ZM117.134 123.328C116.787 123.328 116.481 123.268 116.215 123.148C115.956 123.022 115.754 122.852 115.609 122.637C115.464 122.416 115.391 122.157 115.391 121.86C115.391 121.582 115.451 121.332 115.571 121.111C115.697 120.89 115.89 120.704 116.149 120.552C116.408 120.401 116.733 120.293 117.125 120.23L118.906 119.936V120.78L117.333 121.054C117.049 121.105 116.841 121.197 116.708 121.329C116.575 121.456 116.509 121.62 116.509 121.822C116.509 122.018 116.582 122.179 116.727 122.305C116.879 122.425 117.071 122.485 117.305 122.485C117.596 122.485 117.848 122.422 118.063 122.296C118.284 122.169 118.455 122.002 118.575 121.793C118.695 121.579 118.755 121.342 118.755 121.083V119.766C118.755 119.513 118.66 119.308 118.47 119.15C118.287 118.986 118.041 118.904 117.731 118.904C117.447 118.904 117.198 118.979 116.983 119.131C116.774 119.276 116.62 119.466 116.519 119.699L115.628 119.254C115.723 119.002 115.877 118.78 116.092 118.591C116.307 118.395 116.557 118.244 116.841 118.136C117.131 118.029 117.438 117.975 117.76 117.975C118.164 117.975 118.521 118.051 118.831 118.202C119.146 118.354 119.39 118.566 119.56 118.837C119.737 119.103 119.825 119.412 119.825 119.766V123.215H118.802V122.286L119.02 122.315C118.9 122.523 118.745 122.703 118.556 122.855C118.373 123.006 118.161 123.123 117.921 123.205C117.687 123.287 117.425 123.328 117.134 123.328ZM123.012 123.272C122.475 123.272 122.059 123.12 121.762 122.817C121.465 122.514 121.316 122.087 121.316 121.538V119.055H120.416V118.089H120.558C120.798 118.089 120.985 118.019 121.117 117.88C121.25 117.741 121.316 117.552 121.316 117.312V116.914H122.387V118.089H123.552V119.055H122.387V121.49C122.387 121.667 122.415 121.819 122.472 121.945C122.529 122.065 122.621 122.16 122.747 122.229C122.873 122.292 123.038 122.324 123.24 122.324C123.29 122.324 123.347 122.321 123.41 122.315C123.474 122.308 123.534 122.302 123.59 122.296V123.215C123.502 123.227 123.404 123.24 123.297 123.253C123.189 123.265 123.095 123.272 123.012 123.272ZM124.446 123.215V118.089H125.516V123.215H124.446ZM124.446 117.388V116.156H125.516V117.388H124.446ZM128.474 123.328C127.949 123.328 127.488 123.199 127.09 122.94C126.699 122.681 126.424 122.334 126.266 121.898L127.09 121.509C127.229 121.8 127.419 122.03 127.659 122.201C127.905 122.371 128.177 122.457 128.474 122.457C128.726 122.457 128.932 122.4 129.09 122.286C129.247 122.172 129.326 122.018 129.326 121.822C129.326 121.696 129.292 121.594 129.222 121.519C129.153 121.437 129.064 121.37 128.957 121.32C128.856 121.269 128.752 121.231 128.644 121.206L127.839 120.979C127.397 120.852 127.065 120.663 126.844 120.41C126.629 120.151 126.522 119.851 126.522 119.51C126.522 119.2 126.601 118.932 126.759 118.705C126.917 118.471 127.135 118.291 127.413 118.165C127.69 118.038 128.003 117.975 128.351 117.975C128.818 117.975 129.235 118.092 129.601 118.326C129.968 118.553 130.227 118.872 130.378 119.283L129.554 119.671C129.453 119.425 129.292 119.229 129.071 119.084C128.856 118.938 128.613 118.866 128.341 118.866C128.107 118.866 127.921 118.923 127.782 119.036C127.643 119.144 127.574 119.286 127.574 119.463C127.574 119.583 127.605 119.684 127.668 119.766C127.731 119.842 127.814 119.905 127.915 119.955C128.016 120 128.12 120.037 128.227 120.069L129.061 120.315C129.484 120.435 129.81 120.625 130.037 120.884C130.264 121.137 130.378 121.44 130.378 121.793C130.378 122.097 130.296 122.365 130.132 122.599C129.974 122.826 129.753 123.006 129.469 123.139C129.184 123.265 128.853 123.328 128.474 123.328ZM133.455 123.272C132.918 123.272 132.501 123.12 132.204 122.817C131.907 122.514 131.759 122.087 131.759 121.538V119.055H130.859V118.089H131.001C131.241 118.089 131.427 118.019 131.56 117.88C131.693 117.741 131.759 117.552 131.759 117.312V116.914H132.83V118.089H133.995V119.055H132.83V121.49C132.83 121.667 132.858 121.819 132.915 121.945C132.972 122.065 133.063 122.16 133.19 122.229C133.316 122.292 133.48 122.324 133.682 122.324C133.733 122.324 133.79 122.321 133.853 122.315C133.916 122.308 133.976 122.302 134.033 122.296V123.215C133.944 123.227 133.847 123.24 133.739 123.253C133.632 123.265 133.537 123.272 133.455 123.272ZM134.888 123.215V118.089H135.959V123.215H134.888ZM134.888 117.388V116.156H135.959V117.388H134.888ZM139.456 123.328C138.945 123.328 138.49 123.212 138.092 122.978C137.7 122.738 137.388 122.416 137.154 122.011C136.926 121.607 136.813 121.149 136.813 120.638C136.813 120.132 136.926 119.677 137.154 119.273C137.381 118.869 137.694 118.553 138.092 118.326C138.49 118.092 138.945 117.975 139.456 117.975C139.804 117.975 140.129 118.038 140.432 118.165C140.735 118.285 140.998 118.452 141.219 118.667C141.446 118.881 141.613 119.131 141.721 119.415L140.783 119.851C140.675 119.586 140.502 119.374 140.262 119.216C140.028 119.052 139.759 118.97 139.456 118.97C139.166 118.97 138.904 119.043 138.67 119.188C138.442 119.327 138.262 119.526 138.13 119.785C137.997 120.037 137.931 120.325 137.931 120.647C137.931 120.969 137.997 121.26 138.13 121.519C138.262 121.771 138.442 121.97 138.67 122.116C138.904 122.261 139.166 122.334 139.456 122.334C139.766 122.334 140.034 122.255 140.262 122.097C140.495 121.932 140.669 121.715 140.783 121.443L141.721 121.888C141.62 122.16 141.455 122.406 141.228 122.627C141.007 122.842 140.745 123.013 140.442 123.139C140.138 123.265 139.81 123.328 139.456 123.328ZM144.473 123.328C143.948 123.328 143.487 123.199 143.089 122.94C142.698 122.681 142.423 122.334 142.265 121.898L143.089 121.509C143.228 121.8 143.418 122.03 143.658 122.201C143.904 122.371 144.176 122.457 144.473 122.457C144.725 122.457 144.931 122.4 145.089 122.286C145.247 122.172 145.326 122.018 145.326 121.822C145.326 121.696 145.291 121.594 145.221 121.519C145.152 121.437 145.063 121.37 144.956 121.32C144.855 121.269 144.751 121.231 144.643 121.206L143.838 120.979C143.396 120.852 143.064 120.663 142.843 120.41C142.628 120.151 142.521 119.851 142.521 119.51C142.521 119.2 142.6 118.932 142.758 118.705C142.916 118.471 143.134 118.291 143.412 118.165C143.689 118.038 144.002 117.975 144.35 117.975C144.817 117.975 145.234 118.092 145.6 118.326C145.967 118.553 146.226 118.872 146.377 119.283L145.553 119.671C145.452 119.425 145.291 119.229 145.07 119.084C144.855 118.938 144.612 118.866 144.34 118.866C144.106 118.866 143.92 118.923 143.781 119.036C143.642 119.144 143.573 119.286 143.573 119.463C143.573 119.583 143.604 119.684 143.667 119.766C143.731 119.842 143.813 119.905 143.914 119.955C144.015 120 144.119 120.037 144.226 120.069L145.06 120.315C145.483 120.435 145.809 120.625 146.036 120.884C146.264 121.137 146.377 121.44 146.377 121.793C146.377 122.097 146.295 122.365 146.131 122.599C145.973 122.826 145.752 123.006 145.468 123.139C145.183 123.265 144.852 123.328 144.473 123.328Z" fill="white"/>
<rect x="86.4766" y="141.06" width="155.6" height="18.95" rx="4.7375" fill="#131416"/>
<path d="M97.3879 152.535L96.1997 148.299H96.7853L97.7802 152.029H97.6437L98.6784 148.299H99.264L100.293 152.029H100.151L101.151 148.299H101.737L100.549 152.535H99.9291L98.8944 148.822H99.0422L98.0076 152.535H97.3879ZM103.408 152.603C103.113 152.603 102.849 152.533 102.618 152.392C102.387 152.252 102.205 152.061 102.072 151.818C101.94 151.572 101.873 151.297 101.873 150.994C101.873 150.687 101.938 150.414 102.067 150.175C102.199 149.937 102.377 149.749 102.601 149.612C102.828 149.472 103.082 149.402 103.363 149.402C103.59 149.402 103.791 149.444 103.965 149.527C104.143 149.607 104.293 149.717 104.414 149.857C104.54 149.993 104.634 150.151 104.699 150.329C104.767 150.503 104.801 150.685 104.801 150.875C104.801 150.916 104.797 150.964 104.79 151.017C104.786 151.066 104.78 151.113 104.773 151.159H102.26V150.704H104.466L104.216 150.909C104.25 150.712 104.231 150.535 104.159 150.38C104.087 150.225 103.981 150.101 103.84 150.01C103.7 149.919 103.541 149.874 103.363 149.874C103.185 149.874 103.022 149.919 102.874 150.01C102.726 150.101 102.61 150.232 102.527 150.403C102.447 150.569 102.415 150.768 102.43 151C102.415 151.223 102.449 151.42 102.533 151.591C102.62 151.758 102.741 151.888 102.897 151.983C103.056 152.074 103.228 152.12 103.414 152.12C103.619 152.12 103.791 152.072 103.931 151.977C104.071 151.883 104.185 151.761 104.272 151.614L104.716 151.841C104.655 151.981 104.56 152.11 104.432 152.228C104.306 152.341 104.157 152.432 103.982 152.5C103.812 152.569 103.62 152.603 103.408 152.603ZM106.9 152.603C106.605 152.603 106.341 152.533 106.11 152.392C105.879 152.252 105.697 152.061 105.564 151.818C105.432 151.572 105.365 151.297 105.365 150.994C105.365 150.687 105.43 150.414 105.559 150.175C105.691 149.937 105.869 149.749 106.093 149.612C106.32 149.472 106.574 149.402 106.855 149.402C107.082 149.402 107.283 149.444 107.457 149.527C107.636 149.607 107.785 149.717 107.907 149.857C108.032 149.993 108.126 150.151 108.191 150.329C108.259 150.503 108.293 150.685 108.293 150.875C108.293 150.916 108.289 150.964 108.282 151.017C108.278 151.066 108.272 151.113 108.265 151.159H105.752V150.704H107.958L107.708 150.909C107.742 150.712 107.723 150.535 107.651 150.38C107.579 150.225 107.473 150.101 107.332 150.01C107.192 149.919 107.033 149.874 106.855 149.874C106.677 149.874 106.514 149.919 106.366 150.01C106.218 150.101 106.102 150.232 106.019 150.403C105.94 150.569 105.907 150.768 105.922 151C105.907 151.223 105.941 151.42 106.025 151.591C106.112 151.758 106.233 151.888 106.389 151.983C106.548 152.074 106.72 152.12 106.906 152.12C107.111 152.12 107.283 152.072 107.423 151.977C107.564 151.883 107.677 151.761 107.764 151.614L108.208 151.841C108.147 151.981 108.052 152.11 107.924 152.228C107.799 152.341 107.649 152.432 107.474 152.5C107.304 152.569 107.113 152.603 106.9 152.603ZM108.982 152.535V148.231H109.511V151.182L109.295 151.13L110.921 149.47H111.598L110.421 150.704L111.677 152.535H111.052L109.903 150.875L110.233 150.857L109.341 151.79L109.511 151.403V152.535H108.982ZM112.153 152.535V148.231H112.681V152.535H112.153ZM113.666 153.785C113.598 153.785 113.53 153.78 113.462 153.768C113.394 153.761 113.329 153.744 113.269 153.717V153.245C113.31 153.249 113.361 153.257 113.422 153.268C113.486 153.279 113.549 153.285 113.61 153.285C113.788 153.285 113.922 153.245 114.013 153.166C114.108 153.086 114.197 152.951 114.28 152.762L114.474 152.301L114.462 152.762L113.155 149.47H113.729L114.747 152.085H114.576L115.588 149.47H116.174L114.792 152.898C114.728 153.061 114.644 153.211 114.542 153.348C114.443 153.484 114.322 153.59 114.178 153.666C114.034 153.745 113.864 153.785 113.666 153.785Z" fill="#0C1931"/>
<rect x="126.798" y="142.955" width="36.5312" height="15.16" rx="4.7375" fill="#0E0F10"/>
<path d="M134.535 152.535V148.299H135.047L136.633 150.556H136.372L137.946 148.299H138.458V152.535H137.895V149.004L138.094 149.067L136.519 151.284H136.474L134.916 149.067L135.092 149.004V152.535H134.535ZM140.791 152.603C140.496 152.603 140.229 152.535 139.99 152.398C139.751 152.258 139.562 152.066 139.421 151.824C139.281 151.581 139.211 151.307 139.211 151C139.211 150.693 139.279 150.42 139.416 150.181C139.556 149.942 139.745 149.753 139.984 149.612C140.223 149.472 140.492 149.402 140.791 149.402C141.087 149.402 141.354 149.472 141.593 149.612C141.832 149.749 142.019 149.937 142.156 150.175C142.296 150.414 142.366 150.689 142.366 151C142.366 151.31 142.294 151.587 142.15 151.83C142.006 152.068 141.815 152.258 141.576 152.398C141.341 152.535 141.08 152.603 140.791 152.603ZM140.791 152.091C140.981 152.091 141.152 152.044 141.303 151.949C141.459 151.854 141.58 151.723 141.667 151.557C141.758 151.39 141.803 151.204 141.803 151C141.803 150.791 141.758 150.607 141.667 150.448C141.58 150.285 141.459 150.156 141.303 150.062C141.152 149.963 140.981 149.914 140.791 149.914C140.598 149.914 140.424 149.963 140.268 150.062C140.117 150.156 139.996 150.285 139.905 150.448C139.814 150.607 139.768 150.791 139.768 151C139.768 151.204 139.814 151.39 139.905 151.557C139.996 151.723 140.117 151.854 140.268 151.949C140.424 152.044 140.598 152.091 140.791 152.091ZM143.056 152.535V149.47H143.573V150.067L143.488 150.016C143.564 149.823 143.685 149.673 143.852 149.567C144.022 149.457 144.221 149.402 144.449 149.402C144.668 149.402 144.864 149.451 145.034 149.55C145.209 149.648 145.345 149.785 145.444 149.959C145.546 150.134 145.597 150.331 145.597 150.55V152.535H145.063V150.721C145.063 150.55 145.032 150.406 144.972 150.289C144.911 150.171 144.824 150.081 144.71 150.016C144.6 149.948 144.473 149.914 144.329 149.914C144.185 149.914 144.056 149.948 143.943 150.016C143.833 150.081 143.746 150.173 143.681 150.295C143.617 150.412 143.585 150.554 143.585 150.721V152.535H143.056ZM147.599 152.569C147.299 152.569 147.068 152.483 146.905 152.313C146.746 152.142 146.666 151.902 146.666 151.591V149.976H146.109V149.47H146.223C146.359 149.47 146.467 149.429 146.547 149.345C146.626 149.262 146.666 149.152 146.666 149.016V148.765H147.195V149.47H147.883V149.976H147.195V151.574C147.195 151.676 147.21 151.765 147.24 151.841C147.275 151.917 147.329 151.977 147.405 152.023C147.481 152.065 147.582 152.085 147.707 152.085C147.733 152.085 147.765 152.084 147.803 152.08C147.845 152.076 147.883 152.072 147.917 152.068V152.535C147.868 152.546 147.813 152.553 147.752 152.557C147.691 152.565 147.64 152.569 147.599 152.569ZM148.608 152.535V148.231H149.136V150.067L149.04 150.016C149.115 149.823 149.237 149.673 149.403 149.567C149.574 149.457 149.773 149.402 150 149.402C150.22 149.402 150.415 149.451 150.586 149.55C150.76 149.648 150.897 149.785 150.995 149.959C151.098 150.134 151.149 150.331 151.149 150.55V152.535H150.614V150.721C150.614 150.55 150.582 150.406 150.518 150.289C150.457 150.171 150.372 150.081 150.262 150.016C150.152 149.948 150.025 149.914 149.881 149.914C149.741 149.914 149.614 149.948 149.5 150.016C149.386 150.081 149.297 150.173 149.233 150.295C149.168 150.412 149.136 150.554 149.136 150.721V152.535H148.608ZM151.905 152.535V148.231H152.434V152.535H151.905ZM153.419 153.785C153.351 153.785 153.283 153.78 153.215 153.768C153.146 153.761 153.082 153.744 153.021 153.717V153.245C153.063 153.249 153.114 153.257 153.175 153.268C153.239 153.279 153.302 153.285 153.362 153.285C153.541 153.285 153.675 153.245 153.766 153.166C153.861 153.086 153.95 152.951 154.033 152.762L154.227 152.301L154.215 152.762L152.908 149.47H153.482L154.499 152.085H154.329L155.341 149.47H155.926L154.545 152.898C154.48 153.061 154.397 153.211 154.295 153.348C154.196 153.484 154.075 153.59 153.931 153.666C153.787 153.745 153.616 153.785 153.419 153.785Z" fill="white"/>
<path d="M176.519 152.535V150.596L175.052 148.299H175.683L176.911 150.226H176.684L177.906 148.299H178.537L177.082 150.596V152.535H176.519ZM179.868 152.603C179.572 152.603 179.309 152.533 179.078 152.392C178.847 152.252 178.665 152.061 178.532 151.818C178.399 151.572 178.333 151.297 178.333 150.994C178.333 150.687 178.397 150.414 178.526 150.175C178.659 149.937 178.837 149.749 179.061 149.612C179.288 149.472 179.542 149.402 179.822 149.402C180.05 149.402 180.251 149.444 180.425 149.527C180.603 149.607 180.753 149.717 180.874 149.857C180.999 149.993 181.094 150.151 181.158 150.329C181.227 150.503 181.261 150.685 181.261 150.875C181.261 150.916 181.257 150.964 181.249 151.017C181.246 151.066 181.24 151.113 181.232 151.159H178.72V150.704H180.925L180.675 150.909C180.709 150.712 180.69 150.535 180.618 150.38C180.546 150.225 180.44 150.101 180.3 150.01C180.16 149.919 180.001 149.874 179.822 149.874C179.644 149.874 179.481 149.919 179.334 150.01C179.186 150.101 179.07 150.232 178.987 150.403C178.907 150.569 178.875 150.768 178.89 151C178.875 151.223 178.909 151.42 178.992 151.591C179.08 151.758 179.201 151.888 179.356 151.983C179.515 152.074 179.688 152.12 179.874 152.12C180.078 152.12 180.251 152.072 180.391 151.977C180.531 151.883 180.645 151.761 180.732 151.614L181.176 151.841C181.115 151.981 181.02 152.11 180.891 152.228C180.766 152.341 180.616 152.432 180.442 152.5C180.272 152.569 180.08 152.603 179.868 152.603ZM182.81 152.603C182.609 152.603 182.431 152.567 182.275 152.495C182.124 152.419 182.004 152.317 181.917 152.188C181.83 152.055 181.786 151.904 181.786 151.733C181.786 151.57 181.82 151.424 181.889 151.295C181.961 151.163 182.07 151.051 182.218 150.96C182.37 150.869 182.559 150.804 182.787 150.767L183.924 150.579V151.022L182.906 151.193C182.709 151.227 182.565 151.29 182.474 151.38C182.387 151.471 182.343 151.583 182.343 151.716C182.343 151.841 182.393 151.945 182.491 152.029C182.593 152.112 182.72 152.154 182.872 152.154C183.065 152.154 183.232 152.114 183.372 152.034C183.516 151.951 183.628 151.839 183.708 151.699C183.791 151.559 183.833 151.403 183.833 151.233V150.454C183.833 150.287 183.77 150.153 183.645 150.05C183.524 149.944 183.363 149.891 183.162 149.891C182.988 149.891 182.832 149.937 182.696 150.027C182.563 150.115 182.465 150.232 182.4 150.38L181.94 150.141C181.997 150.001 182.088 149.876 182.213 149.766C182.338 149.652 182.484 149.563 182.65 149.499C182.817 149.434 182.991 149.402 183.173 149.402C183.408 149.402 183.615 149.448 183.793 149.539C183.971 149.626 184.109 149.749 184.208 149.908C184.31 150.063 184.362 150.245 184.362 150.454V152.535H183.844V151.955L183.941 151.989C183.876 152.11 183.789 152.216 183.679 152.307C183.569 152.398 183.441 152.47 183.293 152.523C183.145 152.576 182.984 152.603 182.81 152.603ZM185.181 152.535V149.47H185.699V150.033L185.642 149.954C185.714 149.779 185.824 149.65 185.971 149.567C186.119 149.48 186.299 149.436 186.512 149.436H186.699V149.937H186.432C186.216 149.937 186.042 150.005 185.909 150.141C185.776 150.274 185.71 150.463 185.71 150.71V152.535H185.181ZM187.169 152.535V148.231H187.697V152.535H187.169ZM188.683 153.785C188.615 153.785 188.546 153.78 188.478 153.768C188.41 153.761 188.345 153.744 188.285 153.717V153.245C188.326 153.249 188.378 153.257 188.438 153.268C188.503 153.279 188.565 153.285 188.626 153.285C188.804 153.285 188.939 153.245 189.03 153.166C189.124 153.086 189.213 152.951 189.297 152.762L189.49 152.301L189.479 152.762L188.171 149.47H188.745L189.763 152.085H189.592L190.604 149.47H191.19L189.808 152.898C189.744 153.061 189.661 153.211 189.558 153.348C189.46 153.484 189.338 153.59 189.194 153.666C189.05 153.745 188.88 153.785 188.683 153.785Z" fill="#0C1931"/>
<path d="M218.479 152.535L219.996 148.299H220.656L222.174 152.535H221.577L221.23 151.54H219.422L219.075 152.535H218.479ZM219.598 151.028H221.054L220.247 148.703H220.406L219.598 151.028ZM222.645 152.535V148.231H223.174V152.535H222.645ZM223.994 152.535V148.231H224.523V152.535H223.994Z" fill="#0C1931"/>
<path d="M93.1962 187.591V184.726H87.1417V183.054L93.111 174.885H95.1064V183.054H96.8631V184.726H95.1064V187.591H93.1962ZM88.6255 183.788L88.3014 183.054H93.1962V176.488L93.742 176.659L88.6255 183.788ZM100.163 187.591V176.59H97.7241V174.885H102.158V187.591H100.163ZM108.871 187.795C107.984 187.795 107.206 187.625 106.535 187.284C105.875 186.931 105.364 186.465 105 185.885C104.636 185.294 104.454 184.64 104.454 183.924C104.454 183.105 104.676 182.4 105.119 181.809C105.574 181.207 106.211 180.769 107.029 180.496L106.944 181.008C106.341 180.78 105.864 180.399 105.511 179.865C105.17 179.319 105 178.722 105 178.074C105 177.426 105.165 176.846 105.494 176.335C105.835 175.823 106.296 175.419 106.876 175.124C107.467 174.828 108.132 174.68 108.871 174.68C109.622 174.68 110.287 174.828 110.867 175.124C111.447 175.408 111.901 175.806 112.231 176.317C112.572 176.829 112.743 177.415 112.743 178.074C112.743 178.745 112.566 179.348 112.214 179.882C111.873 180.405 111.407 180.78 110.816 181.008L110.73 180.496C111.549 180.78 112.186 181.218 112.64 181.809C113.095 182.4 113.323 183.105 113.323 183.924C113.323 184.64 113.135 185.294 112.76 185.885C112.396 186.465 111.879 186.931 111.208 187.284C110.537 187.625 109.758 187.795 108.871 187.795ZM108.871 186.09C109.36 186.09 109.787 185.999 110.15 185.817C110.514 185.624 110.798 185.362 111.003 185.033C111.208 184.703 111.31 184.316 111.31 183.873C111.31 183.429 111.208 183.043 111.003 182.713C110.798 182.383 110.514 182.128 110.15 181.946C109.787 181.764 109.36 181.673 108.871 181.673C108.394 181.673 107.973 181.764 107.609 181.946C107.245 182.128 106.961 182.383 106.756 182.713C106.552 183.043 106.449 183.429 106.449 183.873C106.449 184.316 106.552 184.703 106.756 185.033C106.961 185.362 107.245 185.624 107.609 185.817C107.973 185.999 108.394 186.09 108.871 186.09ZM108.871 179.967C109.235 179.967 109.553 179.893 109.826 179.746C110.111 179.586 110.332 179.37 110.491 179.097C110.651 178.825 110.73 178.518 110.73 178.176C110.73 177.824 110.651 177.517 110.491 177.255C110.332 176.983 110.111 176.772 109.826 176.624C109.553 176.465 109.235 176.386 108.871 176.386C108.519 176.386 108.2 176.465 107.916 176.624C107.632 176.772 107.41 176.983 107.251 177.255C107.092 177.517 107.012 177.824 107.012 178.176C107.012 178.518 107.092 178.825 107.251 179.097C107.41 179.37 107.632 179.586 107.916 179.746C108.2 179.893 108.519 179.967 108.871 179.967Z" fill="white"/>
<path d="M114.581 188.728L117.745 180.911H118.93L115.765 188.728H114.581ZM122.582 187.591V185.999H119.218V185.07L122.535 180.532H123.643V185.07H124.619V185.999H123.643V187.591H122.582ZM120.043 185.478L119.863 185.07H122.582V181.423L122.885 181.517L120.043 185.478ZM125.836 187.591L128.253 184.464L128.442 184.587C128.354 184.682 128.256 184.758 128.148 184.815C128.047 184.871 127.937 184.913 127.817 184.938C127.703 184.963 127.58 184.976 127.447 184.976C127.024 184.976 126.645 184.881 126.31 184.691C125.975 184.496 125.71 184.23 125.514 183.896C125.325 183.554 125.23 183.169 125.23 182.74C125.23 182.291 125.334 181.893 125.543 181.546C125.751 181.198 126.035 180.924 126.395 180.721C126.755 180.519 127.166 180.418 127.627 180.418C128.095 180.418 128.505 180.519 128.859 180.721C129.219 180.924 129.5 181.202 129.702 181.555C129.911 181.903 130.015 182.301 130.015 182.749C130.015 182.989 129.99 183.226 129.939 183.46C129.889 183.693 129.8 183.937 129.674 184.189C129.547 184.436 129.371 184.707 129.143 185.004L127.172 187.591H125.836ZM127.627 184.038C127.874 184.038 128.091 183.981 128.281 183.867C128.47 183.753 128.622 183.599 128.736 183.403C128.849 183.207 128.906 182.983 128.906 182.73C128.906 182.471 128.849 182.244 128.736 182.048C128.622 181.846 128.467 181.691 128.271 181.584C128.082 181.47 127.867 181.413 127.627 181.413C127.387 181.413 127.169 181.47 126.973 181.584C126.784 181.691 126.632 181.846 126.519 182.048C126.405 182.244 126.348 182.471 126.348 182.73C126.348 182.983 126.402 183.207 126.509 183.403C126.623 183.599 126.778 183.753 126.973 183.867C127.169 183.981 127.387 184.038 127.627 184.038ZM132.953 187.705C132.492 187.705 132.081 187.603 131.721 187.401C131.361 187.199 131.077 186.921 130.868 186.568C130.666 186.214 130.565 185.813 130.565 185.364C130.565 185.13 130.59 184.897 130.641 184.663C130.691 184.429 130.78 184.186 130.906 183.933C131.039 183.681 131.216 183.409 131.437 183.119L133.407 180.532H134.743L132.327 183.659L132.138 183.536C132.226 183.434 132.321 183.355 132.422 183.299C132.529 183.242 132.64 183.201 132.754 183.175C132.874 183.15 133 183.138 133.133 183.138C133.556 183.138 133.935 183.235 134.27 183.431C134.604 183.627 134.867 183.892 135.056 184.227C135.252 184.562 135.35 184.947 135.35 185.383C135.35 185.825 135.246 186.223 135.037 186.577C134.829 186.924 134.544 187.199 134.184 187.401C133.831 187.603 133.42 187.705 132.953 187.705ZM132.953 186.71C133.199 186.71 133.417 186.653 133.606 186.539C133.796 186.425 133.948 186.271 134.061 186.075C134.175 185.873 134.232 185.645 134.232 185.393C134.232 185.134 134.175 184.906 134.061 184.71C133.954 184.515 133.802 184.363 133.606 184.256C133.417 184.142 133.199 184.085 132.953 184.085C132.713 184.085 132.495 184.142 132.299 184.256C132.109 184.363 131.958 184.515 131.844 184.71C131.73 184.906 131.674 185.134 131.674 185.393C131.674 185.645 131.73 185.873 131.844 186.075C131.958 186.271 132.109 186.425 132.299 186.539C132.495 186.653 132.713 186.71 132.953 186.71Z" fill="#D5D5D5"/>
<path d="M87.8893 201.591V197.247H86.5495V196.65H89.8658V197.247H88.5459V201.591H87.8893ZM91.0722 201.67C90.8378 201.67 90.63 201.628 90.4487 201.544C90.2718 201.456 90.1326 201.337 90.0309 201.186C89.9292 201.031 89.8783 200.855 89.8783 200.656C89.8783 200.466 89.9181 200.295 89.9977 200.145C90.0817 199.99 90.2099 199.86 90.3824 199.754C90.5592 199.647 90.7803 199.572 91.0456 199.528L92.3721 199.309V199.827L91.1849 200.026C90.955 200.065 90.787 200.138 90.6808 200.244C90.5791 200.351 90.5283 200.481 90.5283 200.636C90.5283 200.782 90.5858 200.903 90.7007 201.001C90.8201 201.098 90.9683 201.146 91.1451 201.146C91.3706 201.146 91.5652 201.1 91.7288 201.007C91.8968 200.91 92.0272 200.779 92.1201 200.616C92.2174 200.452 92.266 200.271 92.266 200.072V199.163C92.266 198.969 92.1931 198.812 92.0471 198.692C91.9056 198.569 91.7177 198.507 91.4834 198.507C91.28 198.507 91.0987 198.56 90.9395 198.666C90.7848 198.768 90.6698 198.905 90.5946 199.077L90.0574 198.799C90.1237 198.635 90.2298 198.489 90.3757 198.361C90.5217 198.228 90.6919 198.124 90.8864 198.049C91.081 197.974 91.2844 197.936 91.4966 197.936C91.7708 197.936 92.0118 197.989 92.2196 198.095C92.4274 198.197 92.5888 198.341 92.7038 198.527C92.8231 198.708 92.8828 198.92 92.8828 199.163V201.591H92.2793V200.914L92.392 200.954C92.3169 201.096 92.2152 201.219 92.0869 201.326C91.9587 201.432 91.8084 201.516 91.6359 201.578C91.4635 201.639 91.2756 201.67 91.0722 201.67ZM95.1193 201.67C94.7611 201.67 94.4494 201.582 94.1841 201.405C93.9188 201.228 93.7309 200.989 93.6203 200.689L94.1111 200.45C94.2128 200.662 94.3521 200.83 94.529 200.954C94.7059 201.078 94.9026 201.14 95.1193 201.14C95.3138 201.14 95.4752 201.093 95.6035 201.001C95.7317 200.908 95.7958 200.786 95.7958 200.636C95.7958 200.53 95.7648 200.446 95.7029 200.384C95.6455 200.317 95.5747 200.267 95.4907 200.231C95.4067 200.191 95.3293 200.163 95.2586 200.145L94.7213 199.992C94.3985 199.9 94.162 199.767 94.0117 199.594C93.8657 199.422 93.7928 199.221 93.7928 198.991C93.7928 198.779 93.8458 198.595 93.952 198.44C94.0625 198.281 94.2106 198.157 94.3963 198.069C94.5865 197.981 94.7987 197.936 95.0331 197.936C95.347 197.936 95.6278 198.016 95.8754 198.175C96.1274 198.334 96.3065 198.558 96.4126 198.845L95.9085 199.077C95.829 198.891 95.7096 198.745 95.5504 198.639C95.3912 198.529 95.2121 198.474 95.0132 198.474C94.8319 198.474 94.6882 198.52 94.582 198.613C94.4759 198.701 94.4229 198.814 94.4229 198.951C94.4229 199.053 94.4494 199.137 94.5025 199.203C94.5555 199.265 94.6196 199.314 94.6948 199.349C94.77 199.38 94.8429 199.407 94.9137 199.429L95.4973 199.601C95.7892 199.685 96.0147 199.816 96.1738 199.992C96.3374 200.169 96.4192 200.381 96.4192 200.629C96.4192 200.828 96.364 201.007 96.2534 201.166C96.1429 201.326 95.9903 201.449 95.7958 201.538C95.6012 201.626 95.3757 201.67 95.1193 201.67ZM97.2267 201.591V196.57H97.8435V200.012L97.5915 199.953L99.4884 198.016H100.278L98.9047 199.455L100.371 201.591H99.6409L98.3012 199.654L98.6859 199.634L97.6446 200.722L97.8435 200.271V201.591H97.2267ZM102.205 201.67C101.847 201.67 101.535 201.582 101.27 201.405C101.005 201.228 100.817 200.989 100.706 200.689L101.197 200.45C101.299 200.662 101.438 200.83 101.615 200.954C101.792 201.078 101.989 201.14 102.205 201.14C102.4 201.14 102.561 201.093 102.689 201.001C102.818 200.908 102.882 200.786 102.882 200.636C102.882 200.53 102.851 200.446 102.789 200.384C102.731 200.317 102.661 200.267 102.577 200.231C102.493 200.191 102.415 200.163 102.344 200.145L101.807 199.992C101.484 199.9 101.248 199.767 101.098 199.594C100.952 199.422 100.879 199.221 100.879 198.991C100.879 198.779 100.932 198.595 101.038 198.44C101.148 198.281 101.297 198.157 101.482 198.069C101.672 197.981 101.885 197.936 102.119 197.936C102.433 197.936 102.714 198.016 102.961 198.175C103.213 198.334 103.392 198.558 103.499 198.845L102.994 199.077C102.915 198.891 102.795 198.745 102.636 198.639C102.477 198.529 102.298 198.474 102.099 198.474C101.918 198.474 101.774 198.52 101.668 198.613C101.562 198.701 101.509 198.814 101.509 198.951C101.509 199.053 101.535 199.137 101.588 199.203C101.641 199.265 101.706 199.314 101.781 199.349C101.856 199.38 101.929 199.407 102 199.429L102.583 199.601C102.875 199.685 103.101 199.816 103.26 199.992C103.423 200.169 103.505 200.381 103.505 200.629C103.505 200.828 103.45 201.007 103.339 201.166C103.229 201.326 103.076 201.449 102.882 201.538C102.687 201.626 102.462 201.67 102.205 201.67ZM107.117 201.67C106.768 201.67 106.456 201.589 106.182 201.425C105.912 201.261 105.7 201.038 105.545 200.755C105.39 200.472 105.313 200.154 105.313 199.8C105.313 199.442 105.39 199.124 105.545 198.845C105.7 198.566 105.912 198.345 106.182 198.182C106.456 198.018 106.768 197.936 107.117 197.936C107.352 197.936 107.57 197.978 107.774 198.062C107.977 198.146 108.156 198.259 108.311 198.401C108.466 198.542 108.579 198.708 108.649 198.898L108.099 199.163C108.015 198.978 107.887 198.827 107.714 198.712C107.542 198.593 107.343 198.533 107.117 198.533C106.9 198.533 106.704 198.589 106.527 198.699C106.354 198.81 106.217 198.96 106.116 199.15C106.014 199.34 105.963 199.559 105.963 199.807C105.963 200.045 106.014 200.262 106.116 200.457C106.217 200.647 106.354 200.797 106.527 200.908C106.704 201.018 106.9 201.073 107.117 201.073C107.343 201.073 107.542 201.016 107.714 200.901C107.887 200.782 108.015 200.625 108.099 200.43L108.649 200.709C108.579 200.894 108.466 201.06 108.311 201.206C108.156 201.348 107.977 201.46 107.774 201.544C107.57 201.628 107.352 201.67 107.117 201.67ZM111.153 201.67C110.808 201.67 110.497 201.591 110.218 201.432C109.94 201.268 109.718 201.045 109.555 200.762C109.391 200.479 109.309 200.158 109.309 199.8C109.309 199.442 109.389 199.124 109.548 198.845C109.712 198.566 109.933 198.345 110.211 198.182C110.49 198.018 110.804 197.936 111.153 197.936C111.498 197.936 111.81 198.018 112.088 198.182C112.367 198.341 112.586 198.56 112.745 198.838C112.909 199.117 112.99 199.437 112.99 199.8C112.99 200.163 112.906 200.485 112.738 200.768C112.57 201.047 112.347 201.268 112.069 201.432C111.794 201.591 111.489 201.67 111.153 201.67ZM111.153 201.073C111.374 201.073 111.573 201.018 111.75 200.908C111.932 200.797 112.073 200.645 112.175 200.45C112.281 200.255 112.334 200.039 112.334 199.8C112.334 199.557 112.281 199.342 112.175 199.157C112.073 198.967 111.932 198.816 111.75 198.706C111.573 198.591 111.374 198.533 111.153 198.533C110.928 198.533 110.724 198.591 110.543 198.706C110.366 198.816 110.225 198.967 110.119 199.157C110.013 199.342 109.959 199.557 109.959 199.8C109.959 200.039 110.013 200.255 110.119 200.45C110.225 200.645 110.366 200.797 110.543 200.908C110.724 201.018 110.928 201.073 111.153 201.073ZM113.795 201.591V198.016H114.399V198.745L114.312 198.633C114.401 198.407 114.542 198.235 114.737 198.115C114.931 197.996 115.15 197.936 115.393 197.936C115.672 197.936 115.922 198.014 116.143 198.168C116.368 198.323 116.523 198.527 116.607 198.779L116.435 198.785C116.528 198.507 116.685 198.297 116.906 198.155C117.127 198.009 117.372 197.936 117.642 197.936C117.889 197.936 118.113 197.994 118.312 198.109C118.515 198.224 118.677 198.383 118.796 198.586C118.915 198.79 118.975 199.02 118.975 199.276V201.591H118.352V199.475C118.352 199.276 118.316 199.108 118.245 198.971C118.175 198.834 118.077 198.728 117.954 198.653C117.834 198.573 117.693 198.533 117.529 198.533C117.37 198.533 117.226 198.573 117.098 198.653C116.974 198.728 116.875 198.836 116.8 198.978C116.729 199.115 116.693 199.28 116.693 199.475V201.591H116.07V199.475C116.07 199.276 116.035 199.108 115.964 198.971C115.893 198.834 115.796 198.728 115.672 198.653C115.553 198.573 115.411 198.533 115.248 198.533C115.088 198.533 114.945 198.573 114.816 198.653C114.693 198.728 114.593 198.836 114.518 198.978C114.447 199.115 114.412 199.28 114.412 199.475V201.591H113.795ZM119.851 202.917V198.016H120.455V198.785L120.375 198.633C120.508 198.42 120.689 198.252 120.919 198.129C121.149 198 121.412 197.936 121.708 197.936C122.044 197.936 122.345 198.018 122.61 198.182C122.88 198.345 123.092 198.569 123.247 198.852C123.402 199.13 123.479 199.449 123.479 199.807C123.479 200.156 123.402 200.472 123.247 200.755C123.092 201.038 122.88 201.261 122.61 201.425C122.345 201.589 122.042 201.67 121.702 201.67C121.414 201.67 121.151 201.606 120.912 201.478C120.678 201.35 120.497 201.169 120.368 200.934L120.468 200.828V202.917H119.851ZM121.655 201.073C121.881 201.073 122.082 201.018 122.259 200.908C122.436 200.797 122.573 200.647 122.67 200.457C122.772 200.262 122.822 200.045 122.822 199.807C122.822 199.559 122.772 199.342 122.67 199.157C122.573 198.967 122.436 198.816 122.259 198.706C122.082 198.591 121.881 198.533 121.655 198.533C121.43 198.533 121.226 198.589 121.045 198.699C120.868 198.81 120.727 198.962 120.62 199.157C120.519 199.347 120.468 199.563 120.468 199.807C120.468 200.045 120.519 200.262 120.62 200.457C120.727 200.647 120.868 200.797 121.045 200.908C121.226 201.018 121.43 201.073 121.655 201.073ZM124.288 201.591V196.57H124.905V201.591H124.288ZM127.507 201.67C127.162 201.67 126.854 201.589 126.585 201.425C126.315 201.261 126.103 201.038 125.948 200.755C125.793 200.468 125.716 200.147 125.716 199.793C125.716 199.435 125.791 199.117 125.941 198.838C126.096 198.56 126.304 198.341 126.565 198.182C126.83 198.018 127.126 197.936 127.454 197.936C127.719 197.936 127.953 197.985 128.157 198.082C128.364 198.175 128.539 198.303 128.681 198.467C128.826 198.626 128.937 198.81 129.012 199.017C129.092 199.221 129.132 199.433 129.132 199.654C129.132 199.703 129.127 199.758 129.118 199.82C129.114 199.877 129.107 199.933 129.098 199.986H126.167V199.455H128.74L128.448 199.694C128.488 199.464 128.466 199.258 128.382 199.077C128.298 198.896 128.174 198.752 128.011 198.646C127.847 198.54 127.661 198.487 127.454 198.487C127.246 198.487 127.056 198.54 126.883 198.646C126.711 198.752 126.576 198.905 126.479 199.104C126.386 199.298 126.348 199.53 126.366 199.8C126.348 200.061 126.388 200.291 126.485 200.49C126.587 200.684 126.728 200.837 126.91 200.947C127.095 201.054 127.297 201.107 127.513 201.107C127.752 201.107 127.953 201.051 128.117 200.941C128.28 200.83 128.413 200.689 128.515 200.516L129.032 200.782C128.961 200.945 128.851 201.096 128.7 201.233C128.555 201.365 128.38 201.471 128.176 201.551C127.978 201.631 127.754 201.67 127.507 201.67ZM131.388 201.631C131.039 201.631 130.769 201.531 130.579 201.332C130.393 201.133 130.301 200.852 130.301 200.49V198.606H129.651V198.016H129.783C129.942 198.016 130.068 197.967 130.161 197.87C130.254 197.773 130.301 197.644 130.301 197.485V197.193H130.917V198.016H131.72V198.606H130.917V200.47C130.917 200.589 130.935 200.693 130.97 200.782C131.01 200.87 131.074 200.941 131.163 200.994C131.251 201.043 131.368 201.067 131.514 201.067C131.545 201.067 131.583 201.065 131.627 201.06C131.676 201.056 131.72 201.051 131.76 201.047V201.591C131.702 201.604 131.638 201.613 131.567 201.617C131.497 201.626 131.437 201.631 131.388 201.631ZM134.113 201.67C133.768 201.67 133.461 201.589 133.191 201.425C132.922 201.261 132.709 201.038 132.555 200.755C132.4 200.468 132.322 200.147 132.322 199.793C132.322 199.435 132.398 199.117 132.548 198.838C132.703 198.56 132.911 198.341 133.171 198.182C133.437 198.018 133.733 197.936 134.06 197.936C134.325 197.936 134.56 197.985 134.763 198.082C134.971 198.175 135.146 198.303 135.287 198.467C135.433 198.626 135.544 198.81 135.619 199.017C135.698 199.221 135.738 199.433 135.738 199.654C135.738 199.703 135.734 199.758 135.725 199.82C135.72 199.877 135.714 199.933 135.705 199.986H132.773V199.455H135.347L135.055 199.694C135.095 199.464 135.073 199.258 134.989 199.077C134.905 198.896 134.781 198.752 134.617 198.646C134.454 198.54 134.268 198.487 134.06 198.487C133.852 198.487 133.662 198.54 133.49 198.646C133.317 198.752 133.182 198.905 133.085 199.104C132.992 199.298 132.955 199.53 132.972 199.8C132.955 200.061 132.995 200.291 133.092 200.49C133.193 200.684 133.335 200.837 133.516 200.947C133.702 201.054 133.903 201.107 134.12 201.107C134.359 201.107 134.56 201.051 134.723 200.941C134.887 200.83 135.02 200.689 135.121 200.516L135.639 200.782C135.568 200.945 135.457 201.096 135.307 201.233C135.161 201.365 134.986 201.471 134.783 201.551C134.584 201.631 134.361 201.67 134.113 201.67ZM138.167 201.67C137.831 201.67 137.528 201.589 137.259 201.425C136.993 201.261 136.783 201.038 136.629 200.755C136.474 200.472 136.396 200.156 136.396 199.807C136.396 199.449 136.474 199.13 136.629 198.852C136.783 198.569 136.993 198.345 137.259 198.182C137.528 198.018 137.831 197.936 138.167 197.936C138.464 197.936 138.727 198 138.957 198.129C139.187 198.252 139.368 198.42 139.5 198.633L139.401 198.785V196.57H140.024V201.591H139.421V200.828L139.5 200.934C139.377 201.169 139.195 201.35 138.957 201.478C138.722 201.606 138.459 201.67 138.167 201.67ZM138.22 201.073C138.446 201.073 138.647 201.018 138.824 200.908C139.001 200.797 139.14 200.647 139.242 200.457C139.348 200.262 139.401 200.045 139.401 199.807C139.401 199.563 139.348 199.347 139.242 199.157C139.14 198.962 139.001 198.81 138.824 198.699C138.647 198.589 138.446 198.533 138.22 198.533C137.999 198.533 137.798 198.591 137.617 198.706C137.44 198.816 137.301 198.967 137.199 199.157C137.097 199.342 137.046 199.559 137.046 199.807C137.046 200.045 137.097 200.262 137.199 200.457C137.301 200.647 137.44 200.797 137.617 200.908C137.794 201.018 137.995 201.073 138.22 201.073Z" fill="#D5D5D5"/>
<path d="M169.649 187.795C168.762 187.795 167.983 187.625 167.312 187.284C166.653 186.931 166.141 186.465 165.777 185.885C165.413 185.294 165.231 184.64 165.231 183.924C165.231 183.105 165.453 182.4 165.897 181.809C166.351 181.207 166.988 180.769 167.807 180.496L167.721 181.008C167.119 180.78 166.641 180.399 166.289 179.865C165.948 179.319 165.777 178.722 165.777 178.074C165.777 177.426 165.942 176.846 166.272 176.335C166.613 175.823 167.073 175.419 167.653 175.124C168.244 174.828 168.91 174.68 169.649 174.68C170.399 174.68 171.064 174.828 171.644 175.124C172.224 175.408 172.679 175.806 173.009 176.317C173.35 176.829 173.52 177.415 173.52 178.074C173.52 178.745 173.344 179.348 172.991 179.882C172.65 180.405 172.184 180.78 171.593 181.008L171.508 180.496C172.326 180.78 172.963 181.218 173.418 181.809C173.873 182.4 174.1 183.105 174.1 183.924C174.1 184.64 173.912 185.294 173.537 185.885C173.173 186.465 172.656 186.931 171.985 187.284C171.314 187.625 170.536 187.795 169.649 187.795ZM169.649 186.09C170.138 186.09 170.564 185.999 170.928 185.817C171.292 185.624 171.576 185.362 171.781 185.033C171.985 184.703 172.088 184.316 172.088 183.873C172.088 183.429 171.985 183.043 171.781 182.713C171.576 182.383 171.292 182.128 170.928 181.946C170.564 181.764 170.138 181.673 169.649 181.673C169.171 181.673 168.75 181.764 168.387 181.946C168.023 182.128 167.739 182.383 167.534 182.713C167.329 183.043 167.227 183.429 167.227 183.873C167.227 184.316 167.329 184.703 167.534 185.033C167.739 185.362 168.023 185.624 168.387 185.817C168.75 185.999 169.171 186.09 169.649 186.09ZM169.649 179.967C170.013 179.967 170.331 179.893 170.604 179.746C170.888 179.586 171.11 179.37 171.269 179.097C171.428 178.825 171.508 178.518 171.508 178.176C171.508 177.824 171.428 177.517 171.269 177.255C171.11 176.983 170.888 176.772 170.604 176.624C170.331 176.465 170.013 176.386 169.649 176.386C169.296 176.386 168.978 176.465 168.694 176.624C168.409 176.772 168.188 176.983 168.028 177.255C167.869 177.517 167.79 177.824 167.79 178.176C167.79 178.518 167.869 178.825 168.028 179.097C168.188 179.37 168.409 179.586 168.694 179.746C168.978 179.893 169.296 179.967 169.649 179.967ZM181.414 187.591V184.726H175.36V183.054L181.329 174.885H183.324V183.054H185.081V184.726H183.324V187.591H181.414ZM176.844 183.788L176.519 183.054H181.414V176.488L181.96 176.659L176.844 183.788Z" fill="white"/>
<path d="M187.679 187.591L193.421 180.532H194.614L188.873 187.591H187.679ZM188.759 184.113C188.411 184.113 188.099 184.031 187.821 183.867C187.543 183.697 187.319 183.472 187.148 183.194C186.984 182.916 186.902 182.607 186.902 182.266C186.902 181.925 186.984 181.615 187.148 181.337C187.319 181.053 187.543 180.829 187.821 180.665C188.099 180.5 188.411 180.418 188.759 180.418C189.106 180.418 189.419 180.5 189.697 180.665C189.975 180.829 190.196 181.053 190.36 181.337C190.524 181.615 190.606 181.925 190.606 182.266C190.606 182.607 190.524 182.916 190.36 183.194C190.196 183.472 189.975 183.697 189.697 183.867C189.419 184.031 189.106 184.113 188.759 184.113ZM188.759 183.251C188.955 183.251 189.122 183.204 189.261 183.109C189.406 183.014 189.517 182.891 189.593 182.74C189.668 182.588 189.706 182.43 189.706 182.266C189.706 182.095 189.668 181.937 189.593 181.792C189.517 181.641 189.406 181.517 189.261 181.423C189.122 181.328 188.955 181.28 188.759 181.28C188.569 181.28 188.402 181.328 188.257 181.423C188.111 181.517 187.998 181.641 187.916 181.792C187.84 181.937 187.802 182.095 187.802 182.266C187.802 182.43 187.84 182.588 187.916 182.74C187.998 182.891 188.111 183.014 188.257 183.109C188.402 183.204 188.569 183.251 188.759 183.251ZM193.487 187.705C193.139 187.705 192.824 187.622 192.539 187.458C192.261 187.288 192.04 187.063 191.876 186.785C191.712 186.508 191.63 186.198 191.63 185.857C191.63 185.516 191.712 185.206 191.876 184.928C192.04 184.644 192.261 184.42 192.539 184.256C192.824 184.091 193.139 184.009 193.487 184.009C193.834 184.009 194.147 184.091 194.425 184.256C194.703 184.42 194.924 184.644 195.088 184.928C195.252 185.206 195.334 185.516 195.334 185.857C195.334 186.198 195.252 186.508 195.088 186.785C194.924 187.063 194.703 187.288 194.425 187.458C194.147 187.622 193.834 187.705 193.487 187.705ZM193.487 186.842C193.683 186.842 193.85 186.795 193.989 186.7C194.128 186.605 194.235 186.482 194.311 186.331C194.393 186.179 194.434 186.021 194.434 185.857C194.434 185.686 194.393 185.528 194.311 185.383C194.235 185.232 194.128 185.108 193.989 185.014C193.85 184.919 193.683 184.871 193.487 184.871C193.297 184.871 193.13 184.919 192.985 185.014C192.839 185.108 192.726 185.232 192.644 185.383C192.568 185.528 192.53 185.686 192.53 185.857C192.53 186.021 192.568 186.179 192.644 186.331C192.726 186.482 192.839 186.605 192.985 186.7C193.13 186.795 193.297 186.842 193.487 186.842Z" fill="#D5D5D5"/>
<path d="M167.102 201.67C166.753 201.67 166.43 201.609 166.133 201.485C165.842 201.356 165.585 201.177 165.364 200.947C165.147 200.718 164.979 200.448 164.86 200.138C164.741 199.829 164.681 199.491 164.681 199.124C164.681 198.752 164.741 198.412 164.86 198.102C164.979 197.793 165.147 197.523 165.364 197.293C165.581 197.063 165.837 196.886 166.133 196.762C166.43 196.634 166.753 196.57 167.102 196.57C167.442 196.57 167.747 196.63 168.017 196.749C168.291 196.868 168.521 197.023 168.707 197.213C168.897 197.404 169.032 197.607 169.111 197.824L168.515 198.095C168.4 197.821 168.22 197.6 167.977 197.432C167.734 197.26 167.442 197.174 167.102 197.174C166.757 197.174 166.45 197.255 166.18 197.419C165.915 197.583 165.707 197.81 165.556 198.102C165.406 198.394 165.331 198.734 165.331 199.124C165.331 199.508 165.406 199.846 165.556 200.138C165.707 200.43 165.915 200.658 166.18 200.821C166.45 200.985 166.757 201.067 167.102 201.067C167.442 201.067 167.734 200.983 167.977 200.815C168.22 200.642 168.4 200.419 168.515 200.145L169.111 200.417C169.032 200.634 168.897 200.837 168.707 201.027C168.521 201.217 168.291 201.372 168.017 201.491C167.747 201.611 167.442 201.67 167.102 201.67ZM171.556 201.67C171.211 201.67 170.899 201.591 170.621 201.432C170.342 201.268 170.121 201.045 169.957 200.762C169.794 200.479 169.712 200.158 169.712 199.8C169.712 199.442 169.791 199.124 169.951 198.845C170.114 198.566 170.335 198.345 170.614 198.182C170.892 198.018 171.206 197.936 171.556 197.936C171.901 197.936 172.212 198.018 172.491 198.182C172.769 198.341 172.988 198.56 173.148 198.838C173.311 199.117 173.393 199.437 173.393 199.8C173.393 200.163 173.309 200.485 173.141 200.768C172.973 201.047 172.75 201.268 172.471 201.432C172.197 201.591 171.892 201.67 171.556 201.67ZM171.556 201.073C171.777 201.073 171.976 201.018 172.153 200.908C172.334 200.797 172.475 200.645 172.577 200.45C172.683 200.255 172.736 200.039 172.736 199.8C172.736 199.557 172.683 199.342 172.577 199.157C172.475 198.967 172.334 198.816 172.153 198.706C171.976 198.591 171.777 198.533 171.556 198.533C171.33 198.533 171.127 198.591 170.946 198.706C170.769 198.816 170.627 198.967 170.521 199.157C170.415 199.342 170.362 199.557 170.362 199.8C170.362 200.039 170.415 200.255 170.521 200.45C170.627 200.645 170.769 200.797 170.946 200.908C171.127 201.018 171.33 201.073 171.556 201.073ZM174.197 201.591V198.016H174.801V198.745L174.715 198.633C174.803 198.407 174.945 198.235 175.139 198.115C175.334 197.996 175.553 197.936 175.796 197.936C176.074 197.936 176.324 198.014 176.545 198.168C176.771 198.323 176.926 198.527 177.01 198.779L176.837 198.785C176.93 198.507 177.087 198.297 177.308 198.155C177.529 198.009 177.775 197.936 178.044 197.936C178.292 197.936 178.515 197.994 178.714 198.109C178.918 198.224 179.079 198.383 179.198 198.586C179.318 198.79 179.377 199.02 179.377 199.276V201.591H178.754V199.475C178.754 199.276 178.719 199.108 178.648 198.971C178.577 198.834 178.48 198.728 178.356 198.653C178.237 198.573 178.095 198.533 177.932 198.533C177.772 198.533 177.629 198.573 177.5 198.653C177.377 198.728 177.277 198.836 177.202 198.978C177.131 199.115 177.096 199.28 177.096 199.475V201.591H176.472V199.475C176.472 199.276 176.437 199.108 176.366 198.971C176.296 198.834 176.198 198.728 176.074 198.653C175.955 198.573 175.814 198.533 175.65 198.533C175.491 198.533 175.347 198.573 175.219 198.653C175.095 198.728 174.996 198.836 174.92 198.978C174.85 199.115 174.814 199.28 174.814 199.475V201.591H174.197ZM180.253 202.917V198.016H180.857V198.785L180.777 198.633C180.91 198.42 181.091 198.252 181.321 198.129C181.551 198 181.814 197.936 182.111 197.936C182.447 197.936 182.747 198.018 183.013 198.182C183.282 198.345 183.495 198.569 183.649 198.852C183.804 199.13 183.881 199.449 183.881 199.807C183.881 200.156 183.804 200.472 183.649 200.755C183.495 201.038 183.282 201.261 183.013 201.425C182.747 201.589 182.444 201.67 182.104 201.67C181.817 201.67 181.553 201.606 181.315 201.478C181.08 201.35 180.899 201.169 180.771 200.934L180.87 200.828V202.917H180.253ZM182.058 201.073C182.283 201.073 182.484 201.018 182.661 200.908C182.838 200.797 182.975 200.647 183.072 200.457C183.174 200.262 183.225 200.045 183.225 199.807C183.225 199.559 183.174 199.342 183.072 199.157C182.975 198.967 182.838 198.816 182.661 198.706C182.484 198.591 182.283 198.533 182.058 198.533C181.832 198.533 181.629 198.589 181.447 198.699C181.27 198.81 181.129 198.962 181.023 199.157C180.921 199.347 180.87 199.563 180.87 199.807C180.87 200.045 180.921 200.262 181.023 200.457C181.129 200.647 181.27 200.797 181.447 200.908C181.629 201.018 181.832 201.073 182.058 201.073ZM184.69 201.591V196.57H185.307V201.591H184.69ZM187.909 201.67C187.564 201.67 187.257 201.589 186.987 201.425C186.717 201.261 186.505 201.038 186.35 200.755C186.196 200.468 186.118 200.147 186.118 199.793C186.118 199.435 186.193 199.117 186.344 198.838C186.499 198.56 186.706 198.341 186.967 198.182C187.233 198.018 187.529 197.936 187.856 197.936C188.121 197.936 188.356 197.985 188.559 198.082C188.767 198.175 188.942 198.303 189.083 198.467C189.229 198.626 189.339 198.81 189.415 199.017C189.494 199.221 189.534 199.433 189.534 199.654C189.534 199.703 189.53 199.758 189.521 199.82C189.516 199.877 189.51 199.933 189.501 199.986H186.569V199.455H189.143L188.851 199.694C188.891 199.464 188.869 199.258 188.785 199.077C188.701 198.896 188.577 198.752 188.413 198.646C188.25 198.54 188.064 198.487 187.856 198.487C187.648 198.487 187.458 198.54 187.286 198.646C187.113 198.752 186.978 198.905 186.881 199.104C186.788 199.298 186.751 199.53 186.768 199.8C186.751 200.061 186.79 200.291 186.888 200.49C186.989 200.684 187.131 200.837 187.312 200.947C187.498 201.054 187.699 201.107 187.916 201.107C188.154 201.107 188.356 201.051 188.519 200.941C188.683 200.83 188.815 200.689 188.917 200.516L189.435 200.782C189.364 200.945 189.253 201.096 189.103 201.233C188.957 201.365 188.782 201.471 188.579 201.551C188.38 201.631 188.157 201.67 187.909 201.67ZM191.791 201.631C191.441 201.631 191.172 201.531 190.982 201.332C190.796 201.133 190.703 200.852 190.703 200.49V198.606H190.053V198.016H190.186C190.345 198.016 190.471 197.967 190.564 197.87C190.657 197.773 190.703 197.644 190.703 197.485V197.193H191.32V198.016H192.122V198.606H191.32V200.47C191.32 200.589 191.338 200.693 191.373 200.782C191.413 200.87 191.477 200.941 191.565 200.994C191.654 201.043 191.771 201.067 191.917 201.067C191.948 201.067 191.985 201.065 192.03 201.06C192.078 201.056 192.122 201.051 192.162 201.047V201.591C192.105 201.604 192.041 201.613 191.97 201.617C191.899 201.626 191.839 201.631 191.791 201.631ZM192.968 201.591V198.016H193.585V201.591H192.968ZM192.968 197.446V196.65H193.585V197.446H192.968ZM196.24 201.67C195.895 201.67 195.583 201.591 195.305 201.432C195.026 201.268 194.805 201.045 194.641 200.762C194.478 200.479 194.396 200.158 194.396 199.8C194.396 199.442 194.476 199.124 194.635 198.845C194.798 198.566 195.019 198.345 195.298 198.182C195.577 198.018 195.89 197.936 196.24 197.936C196.585 197.936 196.896 198.018 197.175 198.182C197.454 198.341 197.672 198.56 197.832 198.838C197.995 199.117 198.077 199.437 198.077 199.8C198.077 200.163 197.993 200.485 197.825 200.768C197.657 201.047 197.434 201.268 197.155 201.432C196.881 201.591 196.576 201.67 196.24 201.67ZM196.24 201.073C196.461 201.073 196.66 201.018 196.837 200.908C197.018 200.797 197.159 200.645 197.261 200.45C197.367 200.255 197.42 200.039 197.42 199.8C197.42 199.557 197.367 199.342 197.261 199.157C197.159 198.967 197.018 198.816 196.837 198.706C196.66 198.591 196.461 198.533 196.24 198.533C196.014 198.533 195.811 198.591 195.63 198.706C195.453 198.816 195.311 198.967 195.205 199.157C195.099 199.342 195.046 199.557 195.046 199.8C195.046 200.039 195.099 200.255 195.205 200.45C195.311 200.645 195.453 200.797 195.63 200.908C195.811 201.018 196.014 201.073 196.24 201.073ZM198.881 201.591V198.016H199.485V198.712L199.386 198.653C199.474 198.427 199.615 198.252 199.81 198.129C200.009 198 200.241 197.936 200.506 197.936C200.763 197.936 200.991 197.994 201.19 198.109C201.393 198.224 201.552 198.383 201.667 198.586C201.787 198.79 201.846 199.02 201.846 199.276V201.591H201.223V199.475C201.223 199.276 201.187 199.108 201.117 198.971C201.046 198.834 200.944 198.728 200.812 198.653C200.683 198.573 200.535 198.533 200.367 198.533C200.199 198.533 200.049 198.573 199.916 198.653C199.788 198.728 199.686 198.836 199.611 198.978C199.536 199.115 199.498 199.28 199.498 199.475V201.591H198.881ZM203.875 201.591V198.016H204.479V198.673L204.413 198.58C204.497 198.376 204.625 198.226 204.797 198.129C204.97 198.027 205.18 197.976 205.427 197.976H205.646V198.56H205.334C205.082 198.56 204.879 198.639 204.724 198.799C204.569 198.953 204.492 199.174 204.492 199.462V201.591H203.875ZM207.242 201.67C207.008 201.67 206.8 201.628 206.619 201.544C206.442 201.456 206.302 201.337 206.201 201.186C206.099 201.031 206.048 200.855 206.048 200.656C206.048 200.466 206.088 200.295 206.168 200.145C206.252 199.99 206.38 199.86 206.552 199.754C206.729 199.647 206.95 199.572 207.215 199.528L208.542 199.309V199.827L207.355 200.026C207.125 200.065 206.957 200.138 206.851 200.244C206.749 200.351 206.698 200.481 206.698 200.636C206.698 200.782 206.756 200.903 206.871 201.001C206.99 201.098 207.138 201.146 207.315 201.146C207.54 201.146 207.735 201.1 207.899 201.007C208.067 200.91 208.197 200.779 208.29 200.616C208.387 200.452 208.436 200.271 208.436 200.072V199.163C208.436 198.969 208.363 198.812 208.217 198.692C208.075 198.569 207.888 198.507 207.653 198.507C207.45 198.507 207.269 198.56 207.109 198.666C206.955 198.768 206.84 198.905 206.764 199.077L206.227 198.799C206.294 198.635 206.4 198.489 206.546 198.361C206.692 198.228 206.862 198.124 207.056 198.049C207.251 197.974 207.454 197.936 207.666 197.936C207.941 197.936 208.182 197.989 208.389 198.095C208.597 198.197 208.759 198.341 208.874 198.527C208.993 198.708 209.053 198.92 209.053 199.163V201.591H208.449V200.914L208.562 200.954C208.487 201.096 208.385 201.219 208.257 201.326C208.129 201.432 207.978 201.516 207.806 201.578C207.633 201.639 207.445 201.67 207.242 201.67ZM211.397 201.631C211.047 201.631 210.778 201.531 210.588 201.332C210.402 201.133 210.309 200.852 210.309 200.49V198.606H209.659V198.016H209.792C209.951 198.016 210.077 197.967 210.17 197.87C210.263 197.773 210.309 197.644 210.309 197.485V197.193H210.926V198.016H211.728V198.606H210.926V200.47C210.926 200.589 210.944 200.693 210.979 200.782C211.019 200.87 211.083 200.941 211.171 200.994C211.26 201.043 211.377 201.067 211.523 201.067C211.554 201.067 211.591 201.065 211.636 201.06C211.684 201.056 211.728 201.051 211.768 201.047V201.591C211.711 201.604 211.647 201.613 211.576 201.617C211.505 201.626 211.445 201.631 211.397 201.631ZM214.122 201.67C213.777 201.67 213.469 201.589 213.2 201.425C212.93 201.261 212.718 201.038 212.563 200.755C212.408 200.468 212.331 200.147 212.331 199.793C212.331 199.435 212.406 199.117 212.556 198.838C212.711 198.56 212.919 198.341 213.18 198.182C213.445 198.018 213.741 197.936 214.069 197.936C214.334 197.936 214.568 197.985 214.772 198.082C214.979 198.175 215.154 198.303 215.296 198.467C215.442 198.626 215.552 198.81 215.627 199.017C215.707 199.221 215.747 199.433 215.747 199.654C215.747 199.703 215.742 199.758 215.733 199.82C215.729 199.877 215.722 199.933 215.713 199.986H212.782V199.455H215.355L215.063 199.694C215.103 199.464 215.081 199.258 214.997 199.077C214.913 198.896 214.789 198.752 214.626 198.646C214.462 198.54 214.276 198.487 214.069 198.487C213.861 198.487 213.671 198.54 213.498 198.646C213.326 198.752 213.191 198.905 213.094 199.104C213.001 199.298 212.963 199.53 212.981 199.8C212.963 200.061 213.003 200.291 213.1 200.49C213.202 200.684 213.343 200.837 213.525 200.947C213.71 201.054 213.912 201.107 214.128 201.107C214.367 201.107 214.568 201.051 214.732 200.941C214.895 200.83 215.028 200.689 215.13 200.516L215.647 200.782C215.576 200.945 215.466 201.096 215.316 201.233C215.17 201.365 214.995 201.471 214.792 201.551C214.593 201.631 214.369 201.67 214.122 201.67Z" fill="#D5D5D5"/>
<path d="M86.4766 214.066V291.761" stroke="#181A1B" stroke-width="0.47375" stroke-linecap="round" stroke-dasharray="3.79 3.79"/>
<path d="M112.41 214.066V291.761" stroke="#181A1B" stroke-width="0.47375" stroke-linecap="round" stroke-dasharray="3.79 3.79"/>
<path d="M138.343 214.066V291.761" stroke="#181A1B" stroke-width="0.47375" stroke-linecap="round" stroke-dasharray="3.79 3.79"/>
<path d="M164.276 214.066V291.761" stroke="#181A1B" stroke-width="0.47375" stroke-linecap="round" stroke-dasharray="3.79 3.79"/>
<path d="M190.21 214.066V291.761" stroke="#181A1B" stroke-width="0.47375" stroke-linecap="round" stroke-dasharray="3.79 3.79"/>
<path d="M216.143 214.066V291.761" stroke="#181A1B" stroke-width="0.47375" stroke-linecap="round" stroke-dasharray="3.79 3.79"/>
<path d="M242.077 214.066V291.761" stroke="#181A1B" stroke-width="0.47375" stroke-linecap="round" stroke-dasharray="3.79 3.79"/>
<g clip-path="url(#clip2_46_3890)">
<rect x="86.4766" y="217.856" width="125.28" height="9.475" rx="2.36875" fill="#CD5037" fill-opacity="0.16"/>
<rect x="86.4766" y="217.856" width="94.96" height="9.475" rx="2.36875" fill="#CD5037"/>
</g>
<g clip-path="url(#clip3_46_3890)">
<rect x="86.4766" y="233.016" width="79.8" height="9.475" rx="2.36875" fill="#2E72B8" fill-opacity="0.16"/>
<rect x="86.4766" y="233.016" width="72.22" height="9.475" rx="2.36875" fill="#2E72B8"/>
</g>
<g clip-path="url(#clip4_46_3890)">
<rect x="86.4766" y="248.176" width="49.48" height="9.475" rx="2.36875" fill="#05BD7A" fill-opacity="0.16"/>
<rect x="86.4766" y="248.176" width="38.11" height="9.475" rx="2.36875" fill="#05BD7A"/>
</g>
<g clip-path="url(#clip5_46_3890)">
<rect x="86.4766" y="263.336" width="136.65" height="9.475" rx="2.36875" fill="#DDA73C" fill-opacity="0.16"/>
<rect x="86.4766" y="263.336" width="72.22" height="9.475" rx="2.36875" fill="#DDA73C"/>
</g>
<g clip-path="url(#clip6_46_3890)">
<rect x="86.4766" y="278.496" width="94.96" height="9.475" rx="2.36875" fill="#2B2E31" fill-opacity="0.16"/>
<rect x="86.4766" y="278.496" width="58.0075" height="9.475" rx="2.36875" fill="#2B2E31"/>
</g>
</g>
<defs>
<clipPath id="clip0_46_3890">
<rect width="328" height="282" fill="white"/>
</clipPath>
<clipPath id="clip1_46_3890">
<rect width="9.475" height="9.475" fill="white" transform="translate(186.172 93.6846)"/>
</clipPath>
<clipPath id="clip2_46_3890">
<rect x="86.4766" y="217.856" width="125.28" height="9.475" rx="2.36875" fill="white"/>
</clipPath>
<clipPath id="clip3_46_3890">
<rect x="86.4766" y="233.016" width="79.8" height="9.475" rx="2.36875" fill="white"/>
</clipPath>
<clipPath id="clip4_46_3890">
<rect x="86.4766" y="248.176" width="49.48" height="9.475" rx="2.36875" fill="white"/>
</clipPath>
<clipPath id="clip5_46_3890">
<rect x="86.4766" y="263.336" width="136.65" height="9.475" rx="2.36875" fill="white"/>
</clipPath>
<clipPath id="clip6_46_3890">
<rect x="86.4766" y="278.496" width="94.96" height="9.475" rx="2.36875" fill="white"/>
</clipPath>
</defs>
</svg>
